<?xml version="1.0" standalone="no"?>
<!DOCTYPE svg PUBLIC "-//W3C//DTD SVG 20010904//EN"
 "http://www.w3.org/TR/2001/REC-SVG-20010904/DTD/svg10.dtd">
<svg version="1.0" xmlns="http://www.w3.org/2000/svg"
 width="2100.000000pt" height="2100.000000pt" viewBox="0 0 2100.000000 2100.000000"
 preserveAspectRatio="xMidYMid meet">
<metadata>
Created by potrace 1.14, written by Peter Selinger 2001-2017
</metadata>
<g transform="translate(0.000000,2100.000000) scale(0.100000,-0.100000)"
fill="#000000" stroke="none">
<path d="M6639 20666 c-2 -2 -36 -5 -74 -7 -39 -1 -74 -5 -80 -8 -5 -3 -28 -7
-50 -8 -58 -4 -65 -5 -65 -15 0 -5 -8 -7 -19 -3 -10 3 -24 -1 -31 -10 -10 -12
-16 -13 -26 -4 -11 9 -14 8 -14 0 0 -7 -4 -10 -9 -6 -6 3 -14 -3 -20 -12 -8
-14 -10 -15 -11 -3 0 13 -2 13 -9 1 -5 -8 -19 -16 -31 -18 -31 -5 -71 -34 -63
-47 4 -6 -1 -5 -10 3 -15 12 -17 11 -17 -3 0 -10 -4 -15 -9 -12 -5 3 -11 -1
-15 -9 -3 -8 -12 -15 -21 -15 -8 0 -15 -4 -15 -9 0 -5 -9 -11 -21 -14 -12 -3
-18 -10 -14 -16 3 -6 2 -11 -4 -11 -16 0 -61 -46 -53 -55 4 -5 -1 -5 -11 -2
-11 4 -16 3 -12 -3 3 -6 1 -10 -4 -10 -6 0 -10 -6 -9 -12 2 -7 -3 -12 -11 -10
-12 3 -12 1 0 -14 10 -13 11 -16 1 -10 -9 5 -15 1 -19 -13 -3 -11 -9 -19 -13
-16 -8 5 -26 -33 -22 -47 1 -5 -3 -8 -9 -8 -5 0 -7 -4 -4 -10 3 -5 -2 -10 -12
-10 -14 0 -15 -2 -5 -9 11 -6 10 -10 -3 -15 -10 -3 -15 -12 -11 -21 3 -8 1
-15 -5 -15 -6 0 -8 -7 -5 -16 3 -8 2 -12 -4 -9 -6 4 -10 -5 -10 -20 0 -17 -4
-24 -12 -19 -7 4 -8 3 -4 -4 4 -6 0 -27 -8 -47 -11 -26 -12 -35 -3 -35 7 0 6
-4 -3 -9 -13 -8 -15 -121 -15 -940 0 -822 -2 -931 -15 -932 -8 -1 -35 -1 -60
-1 -25 0 -48 -6 -52 -12 -5 -7 -8 -7 -8 -1 0 12 -118 14 -136 3 -6 -4 -14 -4
-18 0 -12 11 -107 11 -99 -1 4 -6 1 -7 -8 -1 -20 13 -120 14 -112 1 4 -6 1 -7
-8 -1 -20 13 -120 14 -112 1 4 -6 1 -7 -8 -1 -20 13 -120 14 -112 1 4 -6 1 -7
-8 -1 -20 13 -330 13 -322 1 4 -6 1 -7 -8 -1 -19 12 -138 14 -145 2 -3 -5 -12
-4 -21 3 -12 10 -16 10 -24 -2 -5 -8 -9 -9 -9 -3 0 13 -78 13 -97 1 -8 -5 -13
-3 -13 5 0 10 -2 10 -8 1 -5 -7 -28 -14 -53 -14 -24 -1 -48 -5 -54 -8 -5 -3
-19 -6 -30 -7 -36 -1 -66 -15 -58 -27 4 -7 -1 -6 -10 2 -12 10 -17 10 -17 1 0
-6 -6 -10 -12 -7 -7 2 -22 -3 -32 -12 -11 -9 -16 -10 -12 -3 4 6 2 12 -3 12
-6 0 -11 -5 -11 -11 0 -5 -4 -8 -9 -4 -5 3 -16 -2 -25 -10 -8 -9 -18 -16 -21
-16 -22 1 -65 -13 -65 -21 0 -6 -6 -8 -14 -5 -8 3 -17 -1 -20 -9 -3 -8 -9 -13
-13 -12 -4 1 -18 -3 -29 -10 -12 -6 -25 -8 -29 -4 -5 4 -6 3 -3 -3 3 -5 0 -15
-7 -22 -11 -10 -15 -10 -18 0 -3 7 -6 4 -6 -6 -1 -10 -5 -16 -10 -12 -5 3 -16
-1 -24 -9 -8 -8 -17 -12 -21 -9 -5 6 -10 -11 -8 -28 1 -4 -8 -4 -20 -1 -12 3
-19 1 -15 -4 3 -6 -8 -16 -23 -23 -16 -7 -28 -18 -27 -24 1 -7 -4 -11 -10 -10
-7 2 -13 -2 -13 -8 0 -6 -7 -9 -14 -6 -11 4 -13 1 -9 -10 5 -12 3 -14 -7 -8
-10 6 -12 4 -6 -10 6 -16 4 -16 -11 -4 -11 9 -14 10 -9 2 4 -8 2 -13 -4 -13
-6 0 -8 -4 -5 -10 3 -5 -1 -10 -9 -10 -8 0 -23 -11 -34 -25 -11 -13 -22 -22
-25 -18 -4 3 -5 -4 -2 -15 3 -16 -1 -20 -16 -17 -10 2 -18 1 -18 -3 3 -21 -2
-32 -13 -26 -6 4 -9 3 -5 -2 6 -10 -14 -52 -25 -53 -5 -1 -7 -3 -5 -6 1 -2 -7
-11 -18 -20 -11 -9 -14 -14 -8 -10 9 4 11 1 7 -9 -3 -9 -10 -14 -14 -11 -8 5
-26 -33 -22 -47 1 -4 -5 -5 -13 -2 -11 4 -13 2 -9 -9 3 -8 1 -18 -5 -22 -6 -3
-11 -15 -11 -26 0 -10 -4 -19 -9 -19 -9 0 -27 -40 -22 -48 1 -1 -5 -10 -14
-18 -8 -9 -13 -19 -10 -24 3 -5 0 -12 -6 -16 -8 -5 -9 -3 -4 6 5 8 4 11 -2 7
-6 -4 -11 -18 -12 -32 -1 -14 -2 -36 -3 -49 -1 -14 -6 -22 -10 -20 -7 5 -12
-18 -9 -38 0 -5 -3 -8 -8 -8 -6 0 -8 -9 -6 -20 2 -11 0 -20 -5 -20 -5 0 -7 -7
-3 -16 3 -9 1 -19 -5 -23 -7 -4 -14 -30 -16 -58 -2 -28 -6 -56 -10 -61 -3 -6
-1 -14 5 -18 8 -4 7 -9 -2 -15 -11 -7 -11 -9 1 -9 13 0 13 -2 1 -9 -12 -7 -14
-137 -15 -806 l-1 -798 -22 -3 c-14 -2 -23 1 -23 9 0 8 -3 8 -8 1 -9 -14 -224
-14 -234 1 -5 7 -8 7 -8 -1 0 -14 -230 -14 -230 1 0 6 -3 6 -8 -1 -9 -14 -224
-14 -234 1 -5 7 -8 7 -8 -1 0 -14 -230 -14 -230 1 0 6 -3 6 -8 -1 -9 -14 -244
-14 -254 1 -5 7 -8 7 -8 -1 0 -14 -150 -14 -150 1 0 6 -3 6 -8 -1 -9 -14 -145
-13 -154 1 -5 7 -8 7 -8 -1 0 -14 -150 -14 -150 1 0 7 -3 7 -8 -1 -9 -14 -204
-14 -214 0 -5 8 -8 8 -8 0 0 -7 -38 -10 -112 -9 -69 1 -116 -3 -120 -9 -5 -7
-8 -5 -8 4 0 12 -2 12 -9 2 -4 -7 -18 -14 -29 -15 -12 -1 -22 -5 -22 -9 0 -4
-6 -5 -14 -2 -8 3 -17 1 -20 -5 -4 -6 -14 -7 -23 -4 -10 4 -14 2 -10 -4 4 -6
0 -14 -9 -17 -8 -3 -12 -2 -9 4 3 6 -1 7 -9 4 -9 -3 -16 -10 -16 -14 0 -5 -9
-7 -20 -5 -11 2 -25 -4 -33 -16 -8 -10 -17 -16 -20 -12 -4 3 -7 1 -7 -5 0 -7
-5 -12 -11 -12 -6 0 -17 -6 -24 -12 -35 -31 -45 -38 -45 -31 0 4 -5 0 -11 -9
-6 -11 -16 -15 -26 -11 -9 4 -14 2 -11 -3 6 -12 -38 -54 -49 -45 -4 3 -1 -3 7
-13 9 -12 10 -17 3 -12 -16 9 -58 -28 -48 -43 3 -6 -1 -11 -9 -11 -8 0 -18 -5
-22 -12 -5 -7 -2 -9 7 -4 8 4 4 -1 -7 -11 -12 -10 -25 -28 -29 -41 -3 -12 -10
-20 -15 -17 -4 3 -6 -5 -2 -17 4 -16 2 -19 -8 -13 -10 6 -12 4 -7 -8 3 -9 1
-17 -4 -19 -5 -2 -11 -13 -11 -25 -1 -12 -7 -19 -15 -16 -7 3 -13 0 -13 -6 0
-6 5 -11 11 -11 6 0 3 -7 -5 -16 -14 -14 -21 -35 -17 -56 0 -5 -3 -8 -9 -8 -5
0 -7 -7 -4 -15 4 -8 1 -15 -4 -15 -6 0 -9 -9 -7 -20 2 -11 1 -20 -3 -20 -4 0
-7 -69 -6 -152 1 -150 17 -278 36 -278 5 0 7 -4 3 -9 -3 -5 2 -16 10 -25 10
-10 12 -17 4 -21 -6 -5 -4 -11 7 -19 11 -8 14 -18 9 -26 -5 -8 -4 -11 3 -6 6
3 13 2 17 -4 3 -5 1 -10 -5 -10 -6 0 -8 -5 -5 -10 4 -6 11 -7 17 -4 8 5 9 1 5
-10 -4 -10 -1 -19 8 -22 8 -4 13 -10 10 -14 -3 -4 10 -22 28 -40 24 -24 27
-30 12 -25 -16 4 -15 3 3 -6 12 -7 22 -16 22 -21 0 -4 7 -8 17 -8 9 0 13 -3
10 -6 -7 -7 30 -44 44 -44 5 0 6 -7 3 -15 -5 -11 -2 -13 10 -9 11 4 16 1 16
-11 0 -9 5 -13 10 -10 6 3 10 -1 10 -9 0 -9 4 -15 9 -14 5 2 17 -6 26 -17 9
-11 14 -13 10 -5 -4 8 1 6 9 -4 9 -11 16 -16 16 -10 0 5 5 2 10 -6 6 -10 10
-11 10 -2 0 7 8 4 20 -8 12 -12 25 -18 30 -15 6 4 10 1 10 -4 0 -6 7 -11 15
-11 8 0 15 -5 15 -11 0 -5 5 -7 10 -4 6 3 10 1 10 -5 0 -7 7 -10 15 -7 8 4 17
2 20 -4 4 -5 11 -7 16 -4 5 4 9 2 9 -3 0 -5 10 -8 22 -7 13 1 25 -2 28 -6 3
-5 20 -9 38 -11 18 -1 32 -5 32 -9 0 -3 72 -6 160 -5 88 1 160 -3 160 -7 0 -5
6 -5 12 -1 18 11 48 12 48 2 0 -5 6 -6 12 -2 18 11 48 12 48 2 0 -5 5 -6 11
-2 16 10 189 11 189 1 0 -5 6 -5 12 -1 18 11 48 12 48 2 0 -5 6 -6 12 -2 18
11 48 12 48 2 0 -5 5 -6 11 -2 16 9 549 11 549 1 0 -5 6 -5 12 -1 18 11 48 12
48 2 0 -5 6 -6 12 -2 18 11 48 12 48 2 0 -5 6 -6 12 -2 18 11 48 12 48 2 0 -5
6 -6 12 -2 18 11 48 12 48 2 0 -5 6 -6 12 -2 18 11 48 12 48 2 0 -5 6 -6 12
-2 18 11 48 12 48 2 0 -5 6 -6 12 -2 18 11 48 12 48 2 0 -5 6 -6 12 -2 18 11
48 12 48 2 0 -5 5 -6 11 -2 10 6 249 9 345 5 l21 -1 -1 -1147 -1 -1148 -1065
-2 c-586 -1 -1073 -3 -1082 -5 -10 -2 -21 -7 -24 -11 -11 -11 -26 -8 -18 4 3
6 -8 3 -25 -5 -17 -9 -31 -14 -31 -10 0 4 -7 1 -15 -6 -8 -7 -15 -9 -15 -5 0
4 -11 0 -25 -9 -14 -9 -29 -14 -34 -12 -5 3 -19 -3 -32 -13 -13 -10 -30 -16
-36 -14 -7 3 -16 -3 -19 -12 -5 -12 -9 -13 -14 -4 -6 8 -11 5 -19 -10 -7 -11
-16 -21 -22 -21 -6 0 -7 5 -4 10 3 6 4 10 1 10 -3 0 -12 -12 -20 -27 -8 -16
-15 -22 -16 -15 0 7 -5 10 -10 7 -6 -4 -7 -11 -4 -17 5 -7 2 -9 -8 -6 -8 4
-20 -2 -27 -14 -7 -11 -18 -17 -25 -15 -8 3 -13 -1 -12 -11 0 -9 -5 -16 -12
-14 -8 1 -11 -2 -7 -8 4 -7 -2 -14 -14 -17 -12 -3 -21 -9 -21 -13 0 -4 -13
-22 -30 -40 -16 -17 -28 -37 -27 -43 1 -7 -3 -11 -10 -10 -8 2 -10 -4 -6 -14
4 -10 2 -14 -5 -9 -12 7 -25 -10 -27 -35 -1 -9 -9 -24 -18 -34 -9 -9 -17 -25
-17 -36 0 -11 -4 -18 -9 -15 -4 3 -8 -5 -7 -17 1 -12 -4 -33 -11 -47 -7 -14
-13 -35 -13 -48 0 -13 -4 -20 -10 -17 -9 5 -16 -33 -11 -59 1 -5 -4 -13 -11
-17 -7 -5 -8 -9 -2 -9 6 0 10 -23 11 -55 0 -37 -3 -52 -11 -48 -8 5 -8 3 0 -8
6 -8 10 -50 9 -94 0 -45 5 -94 13 -113 7 -18 10 -37 7 -42 -4 -6 -1 -10 5 -10
6 0 8 -4 5 -10 -3 -5 -1 -10 5 -10 6 0 9 -4 6 -9 -3 -5 1 -11 9 -15 8 -3 12
-12 9 -20 -3 -8 0 -17 5 -21 6 -3 9 -10 6 -15 -6 -9 30 -68 50 -82 6 -5 6 -8
1 -8 -6 0 -2 -6 9 -13 10 -8 15 -19 11 -25 -4 -7 -1 -12 9 -12 9 0 13 -4 10
-10 -3 -5 -1 -10 5 -10 6 0 8 -4 5 -10 -3 -5 1 -10 10 -10 8 0 18 -7 21 -15 4
-8 11 -12 18 -8 6 4 5 -1 -3 -10 -12 -15 -12 -17 4 -11 13 5 16 4 11 -4 -4 -7
-1 -12 9 -12 9 0 13 -4 10 -10 -3 -5 0 -10 8 -10 8 0 22 -11 31 -25 9 -14 21
-23 26 -20 6 4 10 1 10 -6 0 -7 3 -9 6 -6 4 4 15 -3 25 -14 10 -12 22 -18 27
-15 10 6 43 -30 34 -39 -4 -3 1 -3 11 1 11 4 17 1 17 -7 0 -12 2 -12 9 -1 7
11 9 10 15 -3 3 -9 10 -13 16 -10 5 3 10 2 10 -2 0 -8 15 -12 58 -15 6 -1 12
-4 12 -8 0 -4 6 -7 13 -7 19 -1 42 -7 47 -14 13 -17 191 -21 1170 -24 580 -1
1058 -3 1061 -4 4 -1 6 -521 5 -1156 -1 -764 2 -1155 9 -1155 6 0 4 -4 -3 -9
-8 -4 -13 -11 -12 -15 0 -3 -4 -14 -9 -24 -6 -9 -11 -12 -11 -7 0 12 -2131 12
-2175 0 -17 -4 -38 -7 -47 -6 -10 1 -18 -2 -18 -8 0 -6 -7 -8 -15 -4 -9 3 -23
-3 -31 -13 -9 -11 -13 -13 -9 -6 4 7 0 12 -10 12 -8 0 -18 -7 -21 -15 -4 -8
-17 -15 -30 -15 -14 0 -27 -7 -30 -15 -4 -8 -10 -12 -15 -9 -5 3 -9 0 -9 -7 0
-7 -3 -9 -7 -6 -3 4 -12 -1 -20 -11 -8 -9 -11 -10 -7 -3 5 9 -4 6 -23 -7 -17
-12 -33 -19 -36 -15 -4 3 -9 -2 -13 -11 -3 -9 -13 -16 -21 -16 -8 0 -12 -4 -9
-8 3 -5 -6 -15 -19 -22 -13 -7 -22 -17 -19 -22 3 -4 -1 -8 -9 -8 -15 0 -77
-66 -69 -75 3 -3 -2 -5 -12 -5 -10 0 -14 -5 -11 -11 4 -6 -1 -17 -11 -25 -11
-9 -13 -13 -4 -9 9 4 7 0 -4 -9 -10 -8 -15 -19 -12 -24 3 -6 -1 -13 -10 -16
-8 -3 -13 -10 -9 -15 3 -6 -3 -14 -12 -20 -10 -6 -13 -11 -8 -11 6 0 4 -4 -3
-9 -7 -4 -14 -18 -15 -29 -1 -12 -5 -22 -10 -22 -4 0 -6 -4 -3 -9 3 -5 0 -11
-7 -14 -8 -3 -13 -16 -12 -29 1 -12 -3 -26 -9 -30 -8 -5 -7 -8 2 -8 10 0 10
-3 0 -14 -7 -8 -17 -11 -23 -8 -5 3 -4 -2 4 -11 7 -9 9 -17 4 -17 -5 0 -8 -40
-7 -90 1 -60 -2 -90 -10 -90 -7 0 -8 -3 0 -8 5 -4 11 -43 12 -87 2 -98 3 -105
14 -105 5 0 6 -4 3 -10 -3 -6 -2 -10 3 -10 6 0 8 -10 4 -22 -3 -14 -1 -19 6
-14 8 5 10 2 6 -8 -3 -9 -1 -16 4 -16 6 0 9 -9 7 -20 -2 -11 1 -20 6 -20 6 0
7 -5 4 -10 -3 -6 -1 -10 5 -10 6 0 9 -4 5 -9 -3 -6 3 -14 12 -20 10 -6 14 -11
9 -11 -5 0 -3 -7 4 -15 7 -8 9 -15 4 -15 -4 0 1 -7 12 -16 10 -8 12 -12 4 -8
-13 7 -13 5 -1 -9 7 -9 17 -14 22 -11 5 3 6 -1 3 -9 -3 -8 2 -21 10 -30 8 -8
12 -18 8 -21 -3 -4 2 -4 12 0 14 5 17 4 12 -5 -5 -8 0 -14 14 -18 13 -3 19
-11 16 -20 -3 -8 -2 -12 3 -9 5 3 11 -1 15 -9 3 -8 17 -20 31 -27 14 -6 25
-16 25 -22 0 -14 38 -38 49 -31 5 2 11 -5 14 -16 4 -16 11 -20 24 -15 9 4 14
4 11 0 -10 -10 34 -43 49 -37 7 3 13 0 13 -7 0 -6 4 -9 9 -5 6 3 14 -3 20 -12
8 -14 10 -15 11 -3 0 13 1 13 10 0 5 -8 13 -15 17 -16 36 -5 73 -18 73 -26 0
-5 4 -6 10 -3 5 3 10 2 10 -2 0 -5 20 -8 45 -8 25 1 45 -2 45 -7 0 -4 488 -8
1084 -8 l1083 0 2 -712 c1 -770 1 -748 11 -748 4 0 7 -18 6 -40 -1 -22 2 -40
7 -40 4 0 6 -4 3 -9 -4 -5 -1 -11 5 -13 5 -2 11 -22 12 -46 1 -23 5 -42 10
-42 4 0 7 -6 6 -12 -3 -17 12 -51 25 -60 7 -5 5 -8 -4 -8 -11 0 -12 -2 -2 -8
7 -5 15 -19 17 -33 3 -13 9 -25 15 -27 5 -2 10 -12 10 -23 0 -10 6 -19 13 -19
9 0 8 -3 -2 -9 -11 -7 -9 -10 8 -16 19 -6 20 -9 9 -23 -7 -10 -8 -14 -4 -10
11 10 35 -21 36 -44 0 -10 4 -18 10 -18 5 0 9 -6 7 -12 -1 -7 4 -12 11 -10 8
1 11 -2 8 -6 -3 -5 3 -20 14 -32 11 -12 17 -27 14 -31 -3 -5 0 -9 6 -9 6 0 8
-5 5 -10 -4 -6 -3 -10 2 -9 23 4 32 -2 26 -18 -4 -11 -3 -14 5 -9 7 4 12 2 12
-4 0 -16 141 -156 153 -152 6 2 4 -5 -4 -14 -9 -12 -9 -15 -1 -10 7 4 12 2 12
-4 0 -6 4 -9 9 -6 5 3 11 -1 15 -9 3 -8 13 -15 21 -15 9 0 13 -4 10 -10 -3 -5
1 -10 9 -10 9 0 16 -4 16 -10 0 -5 3 -9 7 -9 20 3 34 -2 28 -11 -3 -5 -1 -10
5 -10 6 0 20 -9 32 -20 12 -11 30 -20 40 -20 11 0 16 -5 13 -10 -3 -6 3 -10
14 -10 11 0 23 -5 26 -11 4 -6 14 -8 22 -5 8 3 12 2 9 -3 -6 -9 22 -26 36 -23
5 1 8 -3 8 -9 0 -5 4 -8 9 -4 5 3 13 0 16 -6 4 -5 14 -8 22 -5 8 3 11 1 8 -4
-3 -6 1 -10 9 -10 9 0 16 -4 16 -9 0 -6 9 -8 20 -6 11 2 20 0 20 -4 0 -4 7 -8
15 -9 8 -1 22 -3 30 -4 8 -1 15 -5 15 -10 0 -5 5 -6 10 -3 6 4 17 1 25 -5 8
-7 22 -10 30 -6 8 3 15 1 15 -4 0 -5 7 -7 15 -4 8 3 20 2 27 -2 7 -5 36 -10
63 -11 67 -4 75 -5 75 -13 0 -3 11 -6 25 -6 14 0 25 4 25 9 0 5 7 3 17 -4 9
-8 17 -14 17 -13 13 11 45 22 50 16 11 -11 66 -9 66 3 0 6 3 7 8 0 9 -13 82
-15 82 -2 0 5 7 3 17 -4 9 -8 17 -14 17 -13 13 11 45 22 50 16 11 -11 66 -9
66 3 0 6 3 7 8 0 9 -13 82 -15 82 -2 0 5 7 3 17 -4 9 -8 17 -14 17 -13 13 11
45 22 50 16 11 -11 66 -9 66 3 0 6 3 7 8 0 9 -13 82 -15 82 -2 0 5 7 3 17 -4
9 -8 17 -14 17 -13 13 11 45 22 50 16 11 -11 66 -9 66 3 0 6 3 7 8 0 9 -13 82
-15 82 -2 0 5 7 3 17 -4 9 -8 17 -14 17 -13 13 11 45 22 50 16 11 -11 66 -9
66 3 0 7 3 7 8 0 4 -6 34 -10 67 -10 33 0 63 4 67 10 5 7 8 6 8 -1 0 -6 10
-10 23 -9 12 1 27 0 32 -2 7 -2 10 -373 10 -1099 0 -603 3 -1098 8 -1101 4 -2
5 -9 2 -14 -4 -5 -1 -9 5 -9 6 0 8 -5 5 -10 -3 -6 -1 -10 4 -10 6 0 11 -5 11
-11 0 -5 -6 -7 -12 -4 -7 4 -6 1 2 -7 9 -7 15 -23 14 -35 -1 -12 6 -25 15 -28
13 -5 13 -7 1 -15 -12 -7 -10 -11 10 -19 14 -5 19 -10 11 -10 -11 -1 -11 -4
-1 -16 6 -8 8 -20 4 -26 -4 -8 -3 -9 4 -5 7 4 12 2 12 -4 0 -6 6 -8 12 -4 7 4
10 4 6 0 -3 -4 0 -19 7 -33 8 -15 11 -31 8 -37 -4 -6 2 -4 12 4 17 14 18 13
12 -2 -4 -10 -2 -18 4 -18 6 0 8 -7 5 -16 -3 -8 -2 -12 4 -9 5 3 15 -2 22 -11
7 -9 23 -26 34 -39 12 -13 19 -27 15 -31 -3 -4 0 -4 7 0 7 4 15 1 18 -8 3 -9
12 -16 20 -16 7 0 20 -9 28 -21 8 -12 19 -18 25 -14 7 4 11 -4 11 -22 0 -18 3
-23 8 -15 6 9 13 7 29 -7 11 -11 24 -17 27 -14 3 4 6 1 6 -6 0 -7 4 -9 10 -6
5 3 10 2 10 -4 0 -5 17 -15 38 -22 20 -6 43 -17 51 -23 12 -9 13 -8 6 4 -7 12
-6 13 7 3 8 -7 18 -10 21 -6 4 3 7 0 7 -7 0 -7 3 -10 7 -7 3 4 11 3 17 -2 18
-14 56 -20 56 -9 0 6 9 3 19 -6 11 -10 25 -15 30 -11 6 3 11 1 11 -6 0 -9 3
-9 14 0 10 8 16 9 21 1 3 -5 11 -10 16 -10 6 0 7 5 3 11 -5 8 -1 8 14 0 26
-14 35 -14 26 0 -5 8 -1 8 13 0 14 -7 23 -7 30 0 8 8 13 7 17 0 4 -6 12 -11
17 -11 6 0 7 5 3 11 -5 8 -1 8 14 0 25 -13 35 -14 28 -3 -3 5 1 9 9 9 8 0 12
-4 9 -9 -3 -4 0 -8 5 -8 6 0 11 4 11 10 0 5 3 9 8 9 4 -1 9 0 12 1 3 1 16 3
30 4 44 4 80 16 80 26 0 5 7 7 15 4 8 -4 15 -1 15 6 0 6 5 8 10 5 6 -3 13 0
16 9 3 8 12 12 20 9 8 -3 14 0 14 5 0 6 9 9 21 7 16 -3 19 0 15 12 -6 13 -4
14 9 3 13 -11 16 -11 13 1 -2 9 4 13 16 11 11 -2 15 1 11 7 -6 10 8 16 28 12
5 -1 6 3 2 9 -3 5 -1 10 5 10 6 0 8 5 4 13 -5 7 0 6 11 -3 10 -8 16 -10 12 -4
-4 7 1 18 10 25 11 10 14 10 9 2 -5 -9 -2 -11 8 -7 9 3 12 12 9 21 -4 11 -2
14 5 9 7 -4 12 -2 12 4 0 6 5 8 12 4 7 -4 8 -3 4 5 -4 7 2 15 16 20 13 6 19
10 15 10 -4 1 4 12 19 26 15 14 23 25 19 25 -5 0 -1 6 10 13 10 8 15 19 11 25
-4 7 1 9 15 7 17 -3 19 -1 9 10 -9 10 -6 15 11 20 17 6 19 9 8 16 -8 5 -9 9
-4 9 6 0 19 14 29 31 12 20 14 29 6 24 -8 -5 -2 7 12 26 14 19 24 42 23 52 -2
9 1 15 6 11 8 -4 14 33 10 59 0 4 3 7 8 7 5 0 8 8 6 18 -1 9 2 23 8 30 6 8 5
12 -4 12 -11 0 -11 2 1 10 8 5 11 12 7 16 -4 4 1 13 11 21 9 8 13 12 7 10 -6
-3 -10 18 -10 54 0 33 4 59 10 59 7 0 7 3 0 8 -14 10 -14 464 0 474 7 5 7 8 0
8 -13 0 -14 110 0 110 6 0 7 3 0 8 -13 9 -14 105 0 114 6 5 6 8 0 8 -13 0 -14
110 0 110 6 0 7 3 0 8 -14 10 -15 112 -1 112 7 0 7 3 1 8 -14 10 -14 464 0
474 7 5 7 8 0 8 -13 0 -14 110 0 110 6 0 7 3 0 8 -13 9 -14 105 0 114 6 5 6 8
0 8 -5 0 -10 25 -10 55 -1 30 3 55 8 55 4 0 5 5 1 11 -4 7 -7 41 -6 75 1 134
-1 124 32 120 17 -2 30 1 30 8 0 7 3 7 8 1 9 -12 132 -14 132 -2 0 4 6 5 13 0
16 -10 127 -11 133 -1 3 5 11 5 17 1 17 -11 57 -11 63 -1 3 4 11 5 17 1 17
-11 57 -11 63 -1 3 4 11 5 17 1 17 -11 57 -11 63 -1 3 4 11 5 17 1 17 -11 57
-11 63 -1 3 4 11 5 17 1 17 -11 57 -11 63 -1 3 4 11 5 17 1 17 -11 57 -11 63
-1 3 4 11 5 17 1 17 -11 57 -11 63 -1 3 4 11 5 17 1 17 -11 57 -11 63 -1 3 4
11 5 17 1 17 -11 57 -11 63 -1 3 4 11 5 17 1 17 -11 57 -11 63 -1 3 4 11 5 17
1 17 -11 57 -11 63 -1 3 4 11 5 17 1 17 -11 57 -11 63 -1 3 4 11 5 17 1 17
-11 57 -11 63 -1 3 4 11 5 17 1 17 -11 57 -11 63 -1 3 4 11 5 17 1 17 -11 57
-11 63 -1 3 4 11 5 17 1 17 -11 57 -11 63 -1 3 4 11 5 17 1 17 -11 57 -11 63
-1 3 4 11 5 17 1 17 -11 57 -11 63 -1 3 4 11 5 17 1 17 -11 57 -11 63 -1 3 4
11 5 17 1 17 -11 57 -11 63 -1 3 4 11 5 17 1 17 -11 57 -11 63 -1 3 4 11 5 17
1 17 -11 57 -11 63 -1 3 4 11 5 17 1 17 -11 57 -11 63 -1 3 4 11 5 17 1 17
-11 57 -11 63 -1 3 4 13 4 22 -1 9 -5 19 -10 22 -12 3 -1 15 3 27 9 l22 12 0
-343 c0 -188 0 -347 1 -352 2 -6 1 -14 0 -20 -4 -21 0 -167 5 -175 3 -5 -1
-11 -7 -13 -10 -4 -10 -8 1 -15 8 -6 9 -12 3 -16 -9 -5 -8 -56 2 -83 3 -6 2
-14 -1 -17 -8 -7 -5 -164 2 -176 3 -5 -1 -11 -7 -14 -11 -5 -11 -7 0 -12 6 -3
9 -10 6 -15 -3 -5 -5 -208 -5 -451 0 -348 3 -443 13 -450 11 -6 10 -8 0 -8 -8
0 -10 -5 -5 -12 4 -7 8 -24 10 -38 4 -38 8 -54 16 -68 5 -6 5 -12 1 -12 -4 0
1 -9 11 -20 10 -11 15 -23 12 -27 -4 -3 -7 0 -7 7 0 7 -3 10 -7 7 -3 -4 2 -16
12 -27 10 -11 14 -20 9 -20 -5 0 -3 -4 4 -9 7 -4 15 -17 16 -27 2 -10 9 -18
14 -17 6 2 9 -4 6 -12 -4 -8 -1 -15 5 -15 6 0 8 -7 4 -17 -5 -13 -2 -15 12
-10 15 6 16 5 6 -7 -10 -12 -8 -16 8 -21 12 -4 18 -12 14 -21 -3 -7 0 -14 7
-14 6 0 8 -4 5 -10 -3 -5 1 -10 9 -10 14 0 20 -11 17 -32 0 -4 6 -5 14 -2 9 4
15 0 15 -10 0 -9 7 -16 16 -16 8 0 12 -4 9 -10 -3 -5 -1 -10 6 -10 16 0 59
-47 50 -56 -3 -3 5 -3 18 1 16 5 21 4 17 -4 -4 -6 3 -15 16 -20 13 -6 19 -10
13 -11 -5 0 -3 -5 5 -10 20 -13 33 -13 25 1 -4 6 2 5 13 -2 12 -7 19 -16 16
-20 -2 -4 3 -10 12 -13 10 -4 13 -2 8 7 -6 9 -4 9 7 1 29 -24 90 -54 83 -42
-4 7 2 5 13 -5 11 -10 33 -19 47 -20 15 -1 31 -9 36 -17 7 -10 10 -11 10 -3 0
14 21 13 32 -2 9 -12 89 -14 81 -2 -3 5 4 4 15 -2 13 -7 23 -7 27 -1 3 6 15 6
30 0 16 -6 27 -6 31 1 4 7 10 6 19 -1 10 -8 15 -8 20 0 5 8 11 8 21 -1 11 -9
14 -9 14 1 0 9 4 9 17 -1 11 -10 14 -10 9 -1 -4 6 -2 13 3 13 6 1 16 3 21 4 6
1 24 3 41 4 16 0 28 5 24 10 -3 6 4 8 15 6 11 -2 20 1 20 6 0 6 5 7 10 4 6 -3
10 -1 10 5 0 6 4 8 10 5 5 -3 20 0 32 7 13 7 28 11 33 10 6 -1 23 9 39 23 16
14 35 25 43 25 7 0 13 5 13 10 0 6 6 10 13 8 16 -4 58 38 49 48 -4 5 2 2 13
-6 11 -8 17 -11 13 -6 -4 4 3 18 16 30 12 11 15 17 6 11 -23 -14 21 26 50 47
20 14 21 16 5 11 l-20 -6 20 16 c23 19 39 22 29 5 -4 -6 -3 -8 4 -5 5 4 9 14
8 23 -3 18 34 63 46 57 4 -2 5 3 2 11 -4 9 1 18 10 22 9 3 16 10 16 16 0 5 -5
6 -12 2 -7 -4 -8 -3 -4 4 4 7 15 12 24 13 11 0 12 3 5 6 -17 6 -17 24 0 20 7
-1 12 7 11 21 -1 12 3 22 8 22 6 0 8 7 4 15 -3 9 1 15 11 15 12 0 13 3 4 14
-9 10 -8 16 4 26 8 7 12 16 9 21 -3 5 -1 9 5 9 5 0 8 11 6 25 -1 14 1 25 4 25
14 0 20 138 6 144 -6 3 -6 5 0 5 8 1 12 103 5 121 -1 3 -1 10 0 15 5 24 3 336
-3 341 -3 3 -4 11 -1 17 8 24 10 98 2 103 -5 3 -5 10 -2 16 8 13 9 336 1 344
-3 3 -4 11 -1 17 8 24 10 98 2 103 -5 3 -5 10 -2 16 8 13 9 336 1 344 -3 3 -4
11 -1 17 8 24 10 98 2 103 -5 3 -5 10 -2 16 6 9 9 316 4 343 -1 6 -1 21 0 35
1 14 3 41 4 60 1 28 5 35 22 36 12 1 26 4 32 8 6 3 13 3 16 -2 4 -7 60 -8 76
-2 3 1 10 1 15 0 38 -8 45 -8 50 1 4 5 15 4 28 -3 12 -6 22 -11 22 -11 0 0 10
5 22 11 12 7 24 8 27 4 4 -7 60 -8 76 -2 3 1 10 1 15 0 38 -8 45 -8 50 1 4 5
13 5 23 0 9 -5 19 -10 22 -12 3 -1 15 3 27 9 12 7 24 8 27 4 4 -7 60 -8 76 -2
3 1 10 1 15 0 38 -8 45 -8 50 1 4 5 13 5 23 0 9 -5 19 -10 22 -12 3 -1 15 3
27 9 12 7 24 8 27 4 4 -7 60 -8 76 -2 3 1 10 1 15 0 38 -8 45 -8 50 1 4 5 15
4 28 -3 12 -6 22 -11 22 -11 0 0 10 5 22 11 12 7 24 8 27 4 4 -7 60 -8 76 -2
3 1 10 1 15 0 38 -8 45 -8 50 1 4 5 13 5 23 0 9 -5 19 -10 22 -12 3 -1 15 3
27 9 12 7 24 8 27 4 4 -7 60 -8 76 -2 3 1 10 1 15 0 38 -8 45 -8 50 1 4 5 11
6 17 3 18 -12 78 -11 78 0 0 8 3 8 8 1 9 -14 55 -13 64 0 5 7 8 6 8 0 0 -9 53
-12 70 -5 3 1 10 1 15 0 31 -7 75 -5 75 4 0 8 3 8 8 1 9 -14 55 -13 64 0 5 7
8 6 8 0 0 -9 53 -12 70 -5 3 1 10 1 15 0 31 -7 75 -5 75 4 0 8 3 8 8 1 9 -14
55 -13 64 0 5 7 8 6 8 0 0 -12 55 -14 66 -3 6 6 17 3 45 -14 3 -1 13 3 22 11
10 7 17 9 17 3 0 -5 16 -9 35 -7 19 1 32 -2 30 -6 -3 -4 -1 -9 5 -11 11 -4 17
-179 6 -196 -4 -7 -4 -12 1 -12 9 0 9 -353 -1 -368 -3 -6 0 -13 6 -16 11 -5
11 -7 0 -12 -6 -3 -10 -10 -6 -15 8 -13 8 -365 0 -378 -4 -6 -4 -11 1 -11 9 0
8 -134 -2 -149 -3 -6 -3 -11 2 -11 9 0 8 -134 -2 -149 -3 -6 -3 -11 2 -11 9 0
8 -134 -2 -149 -3 -6 -3 -11 2 -11 9 0 9 -353 -1 -368 -3 -6 0 -13 6 -16 11
-5 11 -7 0 -12 -6 -3 -10 -10 -7 -15 3 -5 6 -40 7 -79 1 -38 4 -70 8 -70 4 0
7 -24 8 -52 1 -53 3 -69 15 -98 12 -30 41 -135 39 -143 -1 -4 6 -7 16 -8 11 0
12 -2 4 -6 -10 -4 -9 -9 5 -20 10 -8 11 -11 3 -7 -12 7 -13 5 -3 -8 7 -8 9
-19 5 -23 -4 -5 -2 -5 5 -1 7 4 16 -6 24 -28 9 -24 17 -32 27 -28 10 3 13 1 8
-6 -4 -7 5 -23 21 -39 15 -14 21 -23 13 -18 -8 4 -5 -2 7 -14 12 -11 28 -21
34 -21 7 0 9 -3 6 -6 -7 -7 30 -44 44 -44 5 0 6 -7 3 -15 -5 -11 -2 -13 10 -9
11 4 16 1 16 -11 0 -9 4 -13 10 -10 5 3 10 1 10 -5 0 -6 5 -8 10 -5 6 3 10 1
10 -5 0 -6 5 -8 10 -5 6 3 10 -1 10 -9 0 -9 7 -16 16 -16 8 0 13 -4 9 -9 -3
-6 4 -8 15 -6 11 2 20 0 20 -5 0 -5 10 -14 21 -21 15 -7 19 -8 15 0 -5 7 -1 9
8 5 9 -3 16 -10 16 -16 0 -5 5 -6 10 -3 6 3 10 1 10 -4 0 -6 5 -11 11 -11 5 0
7 6 3 13 -8 13 36 -21 48 -37 4 -6 12 -5 21 2 11 10 17 9 26 -2 6 -7 25 -12
41 -11 17 1 30 -2 30 -8 0 -6 3 -7 7 -4 3 4 12 2 19 -4 9 -7 19 -7 35 1 12 7
19 8 15 2 -6 -11 44 -10 62 2 6 3 13 3 16 -2 5 -9 47 -9 63 1 7 4 14 3 18 -3
3 -5 11 -10 16 -10 6 0 8 4 5 9 -3 4 6 7 19 5 14 -1 25 2 25 6 0 5 8 9 18 9
33 0 57 6 70 19 8 7 18 10 23 7 5 -4 9 -2 9 3 0 5 7 9 15 10 8 1 22 3 30 4 8
1 17 8 19 15 3 8 10 11 16 8 6 -3 13 1 16 9 3 9 10 16 16 16 5 0 6 -6 3 -13
-4 -6 0 -4 8 5 16 21 31 24 22 6 -4 -7 0 -5 8 5 8 9 20 17 26 17 7 0 9 5 5 12
-5 8 -2 9 11 4 14 -5 16 -4 7 7 -9 10 -8 14 3 15 8 1 22 3 30 4 9 1 14 7 11
15 -3 7 1 13 9 13 8 0 19 9 25 19 5 11 19 23 31 26 16 5 18 9 8 21 -10 12 -9
13 5 8 9 -3 16 -1 16 5 0 6 7 11 16 11 8 0 12 5 9 10 -3 6 -1 10 5 10 6 0 8 5
5 10 -3 6 1 13 9 16 9 3 16 13 16 20 0 8 7 17 15 20 8 4 15 10 15 16 0 5 -5 6
-12 2 -7 -5 -8 -3 -4 5 5 7 15 10 23 6 13 -4 14 -3 3 10 -10 12 -9 16 4 21 10
4 15 13 12 20 -3 8 -1 14 5 14 6 0 8 4 5 9 -4 5 -2 11 4 13 6 2 12 14 15 27 2
14 10 28 17 33 10 6 9 8 -2 8 -13 0 -13 1 0 10 8 5 11 10 6 10 -5 0 -3 6 3 13
6 8 8 17 4 20 -3 4 -2 7 4 7 6 0 8 17 6 41 -3 27 -1 39 6 34 7 -3 8 0 5 9 -3
9 -2 16 4 16 5 0 6 16 2 40 -4 22 -4 42 -1 45 4 2 4 29 1 60 -3 31 -3 58 2 61
4 3 3 15 -2 28 -5 15 -5 27 3 35 8 8 8 11 -2 11 -10 0 -11 3 -2 13 6 8 8 17 5
20 -8 8 -8 126 -1 134 3 3 2 15 -3 28 -5 14 -5 26 3 34 8 8 8 11 -2 11 -10 0
-11 3 -2 13 6 8 8 17 5 20 -8 8 -8 126 -1 134 3 3 2 15 -3 28 -5 14 -5 26 3
34 8 8 8 11 -2 11 -10 0 -11 3 -2 13 6 8 8 17 5 20 -8 8 -8 126 -1 134 3 3 2
15 -3 28 -5 14 -5 26 3 34 8 8 8 11 -2 11 -10 0 -11 3 -2 13 6 8 8 17 5 20 -8
8 -8 126 -1 134 3 3 2 15 -3 28 -5 14 -5 26 3 34 8 8 8 11 -2 11 -10 0 -11 3
-2 13 6 8 8 17 5 20 -8 8 -8 126 -1 134 3 3 2 15 -3 28 -5 14 -5 26 3 34 8 8
8 11 -2 11 -10 0 -11 3 -2 13 6 8 8 17 5 20 -8 8 -8 126 -1 134 3 3 2 15 -3
28 -5 14 -5 26 3 34 8 8 8 11 -2 11 -10 0 -11 3 -2 13 6 8 8 17 5 20 -8 8 -8
126 -1 134 3 3 2 15 -3 28 -5 14 -5 26 3 34 8 8 8 11 -2 11 -10 0 -11 3 -2 13
6 8 8 17 5 20 -3 3 -7 33 -8 66 -1 63 5 73 43 66 11 -2 23 1 26 6 4 5 12 6 18
2 17 -11 57 -11 63 -1 3 4 11 5 17 1 17 -11 57 -11 63 -1 3 4 11 5 17 1 17
-11 57 -11 63 -1 3 4 11 5 17 1 17 -11 57 -11 63 -1 3 4 11 5 17 1 17 -11 57
-11 63 -1 3 4 11 5 17 1 17 -11 57 -11 63 -1 3 4 11 5 17 1 17 -11 57 -11 63
-1 3 4 11 5 17 1 17 -11 57 -11 63 -1 3 4 11 5 17 1 17 -11 57 -11 63 -1 3 4
11 5 17 1 17 -11 57 -11 63 -1 3 4 11 5 17 1 17 -11 57 -11 63 -1 3 4 11 5 17
1 17 -11 57 -11 63 -1 3 4 11 5 17 1 17 -11 57 -11 63 -1 3 4 11 5 17 1 17
-11 57 -11 63 -1 3 4 11 5 17 1 17 -11 57 -11 63 -1 3 4 13 4 22 -1 25 -13 34
-14 41 -2 4 6 31 12 61 15 30 3 59 5 63 5 5 1 5 6 1 13 -4 7 -3 8 5 4 6 -4 19
-2 28 6 14 11 16 11 8 -2 -7 -12 -6 -13 7 -3 8 7 18 10 21 6 4 -3 7 0 7 8 0
11 2 11 10 -1 7 -11 10 -12 10 -2 0 8 9 13 23 11 27 -2 59 10 52 21 -3 4 1 7
8 7 25 -2 102 25 114 41 7 9 13 12 13 7 0 -5 7 0 16 11 8 10 13 13 9 7 -3 -7
-1 -13 4 -13 6 0 11 7 11 17 0 9 3 13 7 10 3 -4 17 0 31 9 18 12 22 12 17 3
-4 -8 3 -3 14 11 11 14 21 21 21 15 0 -5 5 -3 10 5 5 8 14 16 20 16 5 1 15 2
20 3 6 0 10 8 10 17 0 8 4 13 9 9 6 -3 15 4 21 15 6 11 15 18 21 15 5 -4 9 -1
9 5 0 6 5 8 13 4 8 -5 7 -2 -2 9 -12 15 -12 17 3 11 9 -4 18 0 22 9 3 9 12 13
21 10 10 -4 14 -2 10 4 -4 6 0 13 8 17 8 3 15 12 15 20 0 9 6 13 14 10 8 -3
17 0 22 7 5 8 3 10 -7 4 -8 -5 3 8 24 28 21 20 43 37 48 37 5 0 9 7 9 15 0 8
4 15 10 15 5 0 9 3 8 8 -2 13 14 42 22 37 4 -3 10 5 13 16 4 14 10 18 19 13
11 -6 11 -5 0 8 -10 13 -10 17 3 22 8 3 15 13 15 21 0 9 4 14 9 11 11 -7 23
22 15 35 -3 5 2 9 10 9 10 0 13 7 11 21 -3 14 0 19 8 16 8 -3 14 4 14 16 1 11
8 24 15 28 7 4 9 11 6 15 -4 3 0 13 8 21 8 8 12 18 9 23 -3 5 -1 11 5 15 6 4
8 11 5 16 -4 5 -1 9 5 9 6 0 8 4 5 10 -3 5 -1 10 5 10 7 0 10 7 6 15 -3 8 -2
15 2 15 4 0 8 10 9 22 1 11 6 24 10 27 4 3 9 15 10 26 6 52 12 77 21 88 5 7 9
19 10 27 0 8 2 30 5 48 3 19 0 32 -7 32 -6 0 -4 5 4 10 13 8 15 99 16 717 l1
708 1102 2 c606 2 1110 7 1119 11 9 5 32 8 50 6 19 -1 32 2 32 9 0 7 4 6 10
-3 7 -12 10 -12 10 -1 0 7 6 11 15 8 8 -4 17 -2 20 3 4 6 15 10 26 10 10 0 19
4 19 10 0 5 7 7 15 4 8 -4 15 -1 15 6 0 6 5 8 10 5 6 -3 10 -1 10 5 0 6 5 8
10 5 6 -3 10 -1 10 5 0 6 5 8 11 4 6 -3 26 9 45 27 19 18 34 29 34 25 0 -5 -8
-15 -17 -22 -10 -7 -14 -14 -10 -14 4 0 20 13 36 29 15 16 38 32 50 36 12 3
18 11 15 17 -5 7 -1 9 9 5 11 -4 14 -2 10 9 -3 8 -2 14 3 13 22 -4 34 2 34 17
0 9 5 12 12 8 7 -5 9 -2 6 7 -3 8 2 21 10 29 14 13 15 12 9 -4 -6 -16 -5 -17
8 -6 8 7 12 16 9 21 -3 5 0 9 6 9 6 0 8 5 5 10 -3 6 1 10 9 10 9 0 13 7 11 19
-3 15 0 18 12 14 12 -5 15 -2 10 10 -4 10 -2 16 6 14 7 -1 12 8 11 20 0 12 2
22 5 21 21 -2 31 4 25 13 -3 6 -3 14 2 18 16 11 44 82 38 93 -5 8 -1 9 12 4
14 -5 16 -4 7 4 -8 9 -7 17 5 31 9 10 17 36 17 56 0 21 4 44 8 50 5 7 5 17 2
23 -3 6 -1 10 5 10 6 0 8 5 3 12 -11 18 -10 52 2 60 7 5 7 8 0 8 -6 0 -9 33
-8 82 1 51 -3 88 -10 97 -10 12 -9 13 3 6 12 -6 13 -5 3 6 -7 7 -13 28 -13 45
0 18 -5 36 -11 39 -6 4 -8 13 -5 21 3 8 1 14 -5 14 -6 0 -7 5 -4 10 3 6 1 10
-4 10 -6 0 -10 3 -10 8 4 21 -3 40 -21 59 -14 15 -16 23 -7 26 9 4 9 6 0 6 -7
1 -13 8 -13 16 0 8 -5 15 -11 15 -6 0 -9 7 -5 15 3 8 1 15 -5 15 -6 0 -17 6
-24 14 -11 10 -11 16 -2 25 7 7 8 12 2 11 -23 -5 -35 1 -35 18 0 14 -2 15 -10
2 -8 -12 -10 -12 -10 -1 0 18 -80 97 -94 93 -6 -2 -8 -1 -4 3 9 9 -32 55 -49
55 -8 0 -12 4 -8 9 3 5 -5 11 -17 13 -13 2 -22 9 -21 15 2 7 -4 10 -12 7 -8
-3 -22 2 -31 11 -9 9 -23 14 -31 11 -8 -3 -11 -1 -8 4 3 6 -1 10 -9 10 -8 0
-21 6 -28 13 -7 6 -17 12 -23 13 -28 1 -85 17 -85 23 0 4 -6 8 -12 9 -7 1
-530 3 -1162 4 l-1149 3 1 1155 c0 635 1 1166 1 1180 l1 25 1092 -1 c601 0
1107 3 1123 7 17 4 44 10 60 12 17 2 44 9 60 16 32 14 62 22 83 23 6 1 12 6
12 12 0 6 4 5 9 -2 7 -11 11 -11 24 2 8 9 20 16 26 16 6 0 11 3 11 8 0 4 17
16 38 27 20 11 43 27 50 35 8 9 11 10 7 2 -6 -11 -3 -11 14 0 22 13 30 34 9
22 -8 -4 -10 -3 -5 2 5 5 12 9 15 9 4 1 17 6 28 13 12 6 24 8 28 4 4 -3 4 1 1
9 -4 11 1 18 15 22 14 4 19 10 14 18 -5 9 -2 10 9 6 8 -3 18 0 21 8 3 10 0 12
-12 9 -9 -3 -2 4 16 16 31 21 46 39 20 24 -7 -4 -2 4 12 18 14 13 29 22 34 20
5 -3 6 0 2 7 -4 6 -2 19 5 27 7 9 14 23 15 32 2 8 8 18 14 22 7 4 11 11 11 16
-2 19 11 44 19 39 4 -3 6 4 3 15 -3 12 0 20 7 20 7 0 10 8 7 20 -3 11 -1 18 4
14 5 -3 9 -2 10 3 0 4 3 17 5 28 2 11 5 29 6 40 1 11 5 25 8 30 4 6 7 61 6
122 -1 62 3 113 8 113 5 0 3 6 -3 13 -6 8 -8 17 -4 20 3 4 0 14 -8 24 -12 15
-12 16 1 8 12 -7 13 -6 4 6 -6 8 -12 21 -12 29 -1 28 -11 62 -23 76 -9 11 -8
14 2 14 12 0 12 2 1 9 -8 4 -14 12 -14 17 0 5 -4 8 -8 7 -4 -1 -6 7 -3 17 3
11 0 20 -6 20 -6 0 -10 3 -10 8 4 21 -2 32 -13 26 -8 -5 -7 0 2 11 9 11 10 16
2 11 -7 -4 -15 0 -19 11 -3 10 -13 27 -22 38 -14 17 -14 18 -1 10 9 -6 6 -1
-7 10 -13 12 -23 29 -23 38 0 10 -5 15 -10 12 -6 -3 -10 -1 -10 6 0 6 -12 22
-27 36 -23 19 -24 23 -8 18 11 -3 8 1 -8 8 -15 7 -25 16 -22 19 3 3 -1 8 -10
12 -11 4 -14 2 -10 -7 4 -6 -2 -1 -13 12 -13 16 -24 21 -33 16 -11 -7 -10 -4
1 10 8 10 11 16 5 13 -13 -7 -36 17 -27 28 4 5 -1 2 -11 -6 -16 -11 -18 -11
-15 1 2 8 -4 13 -15 12 -10 0 -16 1 -13 4 7 7 -17 32 -26 26 -5 -2 -8 1 -8 7
0 7 -7 10 -15 6 -8 -3 -15 -1 -15 5 0 6 -4 7 -10 4 -5 -3 -10 -2 -10 3 0 11
-37 25 -57 23 -7 -1 -13 3 -13 9 0 6 -4 9 -9 5 -5 -3 -13 0 -16 6 -4 5 -13 8
-21 5 -8 -3 -14 -2 -14 3 0 9 -9 11 -70 15 -25 2 -61 7 -80 11 -19 4 -520 8
-1112 8 -593 0 -1078 3 -1079 6 -4 30 -3 2266 2 2278 5 14 32 16 212 17 114 1
207 -3 207 -7 0 -5 6 -5 12 -1 18 11 48 12 48 2 0 -5 6 -6 12 -2 18 11 48 12
48 2 0 -5 6 -6 12 -2 18 11 48 12 48 2 0 -5 6 -6 12 -2 18 11 48 12 48 2 0 -5
6 -6 12 -2 18 11 48 12 48 2 0 -5 6 -6 12 -2 18 11 48 12 48 2 0 -5 6 -6 12
-2 18 11 48 12 48 2 0 -5 6 -6 12 -2 18 11 48 12 48 2 0 -5 5 -6 11 -2 16 10
429 11 429 1 0 -5 6 -5 12 -1 18 11 48 12 48 2 0 -5 6 -6 12 -2 18 11 48 12
48 2 0 -5 5 -6 11 -2 16 10 189 11 189 1 0 -5 6 -5 12 -1 18 11 48 12 48 2 0
-5 6 -6 12 -2 18 11 48 12 48 2 0 -5 5 -6 11 -2 6 3 111 7 233 7 189 0 223 3
234 16 8 9 10 10 7 3 -5 -10 -1 -13 16 -10 13 2 27 8 31 13 5 6 8 5 8 -3 0
-10 4 -9 16 3 9 9 23 14 30 11 8 -3 14 -1 14 3 0 5 7 12 16 15 10 4 13 2 8 -6
-4 -7 6 -2 23 10 17 12 33 19 37 15 3 -3 6 -1 6 6 0 7 4 10 9 6 6 -3 13 0 18
7 4 7 15 13 23 13 8 0 14 5 13 12 -2 7 7 10 23 7 22 -4 25 -2 20 13 -4 9 -4
14 0 10 4 -4 16 1 27 10 12 11 17 12 12 4 -5 -10 -4 -12 3 -7 7 4 12 14 12 21
0 9 6 12 17 8 11 -4 14 -3 9 5 -4 7 -2 12 4 12 6 0 8 5 4 12 -5 8 -2 9 9 5 9
-3 16 -3 15 1 -4 12 59 71 68 64 4 -4 4 1 1 10 -4 11 -2 17 6 15 7 -1 11 4 10
11 -2 6 2 12 8 12 6 0 9 6 6 13 -3 7 4 19 14 25 10 7 19 19 19 28 0 8 4 13 9
9 6 -3 8 4 6 15 -2 11 0 18 6 15 5 -4 9 1 9 9 0 9 4 16 10 16 5 0 9 3 8 8 0 4
2 15 5 25 4 9 9 24 12 33 3 8 10 12 16 8 7 -4 9 -3 6 4 -9 13 13 112 24 112 5
0 6 7 3 15 -4 9 0 15 7 15 9 0 10 3 4 8 -5 4 -10 16 -10 27 0 11 5 23 10 27 7
5 7 8 0 8 -6 0 -9 44 -7 116 1 82 -2 121 -10 132 -9 10 -9 13 -1 9 8 -5 8 -1
0 18 -7 14 -16 25 -21 25 -5 0 -3 7 4 15 9 10 9 15 1 15 -6 0 -11 9 -11 19 0
11 -5 23 -11 26 -6 4 -8 13 -5 21 3 8 -1 14 -10 14 -10 0 -14 6 -10 15 3 9 -1
18 -10 22 -13 5 -13 7 -2 14 10 7 10 9 1 9 -7 0 -13 6 -13 14 0 8 -4 16 -9 18
-5 2 -11 10 -13 18 -2 8 -11 21 -20 28 -10 7 -18 19 -18 26 0 8 -8 20 -17 27
-17 13 -17 13 -3 -6 14 -19 14 -19 -2 -6 -10 7 -18 20 -18 28 0 8 -4 11 -10 8
-5 -3 -10 3 -10 14 0 14 -6 21 -20 21 -11 0 -20 6 -20 14 0 8 -10 18 -21 21
-17 6 -19 9 -8 17 10 7 8 8 -8 5 -12 -3 -21 -2 -20 2 3 10 -36 49 -53 53 -8 2
-21 9 -28 16 -8 7 -17 10 -21 8 -4 -3 -13 4 -21 14 -11 15 -18 17 -33 8 -12
-6 -17 -6 -13 0 7 12 -20 36 -33 28 -5 -4 -14 1 -19 10 -6 11 -11 13 -16 5 -5
-8 -12 -7 -23 4 -9 9 -22 14 -29 11 -7 -3 -16 -1 -19 4 -3 5 -12 7 -20 3 -9
-3 -21 -1 -28 4 -6 5 -85 9 -174 8 -107 0 -163 3 -163 10 0 6 -3 6 -8 -1 -9
-14 -145 -13 -154 1 -5 7 -8 7 -8 -1 0 -14 -150 -14 -150 1 0 6 -3 6 -8 -1 -9
-14 -145 -13 -154 1 -5 7 -8 7 -8 -1 0 -14 -202 -14 -212 1 -5 7 -8 7 -8 -1 0
-14 -230 -14 -230 1 0 6 -3 6 -8 -1 -9 -14 -224 -14 -234 1 -5 7 -8 7 -8 -1 0
-14 -230 -14 -230 1 0 6 -3 6 -8 -1 -9 -14 -224 -14 -234 1 -5 7 -8 7 -8 0 0
-7 -47 -11 -130 -11 -112 0 -130 2 -129 16 1 8 0 20 -1 25 -1 6 -2 362 -2 793
-1 557 -4 782 -12 782 -6 0 -4 5 4 10 10 6 11 10 3 10 -9 0 -12 17 -12 50 1
36 -4 56 -16 70 -11 12 -13 20 -6 20 9 0 9 5 1 21 -7 11 -9 27 -6 35 3 8 1 14
-4 14 -6 0 -10 11 -10 24 0 13 -6 27 -12 29 -10 4 -10 6 0 6 10 1 10 5 -2 17
-9 8 -14 20 -11 25 4 5 1 9 -5 9 -6 0 -8 5 -5 10 3 6 1 10 -5 10 -6 0 -8 5 -5
10 3 6 0 10 -7 10 -9 0 -9 3 2 10 13 8 12 10 -3 10 -9 0 -16 3 -15 8 6 22 -15
72 -30 72 -15 0 -15 2 -2 10 11 7 11 10 2 10 -7 0 -10 5 -7 10 3 6 1 10 -4 10
-6 0 -11 9 -11 20 0 11 -11 27 -25 36 -14 9 -24 22 -23 28 4 15 -37 67 -46 59
-5 -6 -10 11 -7 29 0 4 -9 10 -21 13 -15 5 -17 9 -8 15 9 6 7 10 -9 15 -13 4
-18 11 -14 18 4 7 -1 6 -10 -2 -15 -12 -17 -12 -11 3 4 11 -1 19 -17 25 -13 5
-20 10 -15 10 5 1 -2 10 -15 22 -13 11 -24 26 -24 32 0 5 -7 12 -15 14 -13 4
-13 3 0 -6 13 -9 13 -11 -2 -11 -10 0 -18 7 -18 15 0 9 -9 25 -20 37 -11 12
-20 18 -20 14 0 -4 -6 -1 -14 6 -8 7 -12 16 -9 21 2 4 -3 7 -12 7 -10 0 -29
13 -45 29 -22 24 -30 28 -41 18 -7 -7 -10 -8 -7 -3 9 10 -25 42 -53 51 -11 4
-19 11 -19 16 0 5 -3 8 -7 7 -12 -2 -46 13 -67 31 -16 13 -18 13 -11 1 5 -9 0
-8 -13 4 -17 14 -22 16 -22 5 0 -11 -2 -11 -10 1 -5 8 -10 11 -10 7 0 -4 -6
-2 -14 5 -8 7 -12 16 -10 19 2 3 -3 6 -11 6 -8 0 -11 -5 -8 -11 4 -6 -1 -5
-10 2 -9 8 -26 15 -39 18 -70 12 -87 17 -83 24 2 4 -3 7 -13 7 -44 0 -63 4
-58 11 4 7 -28 11 -111 15 -7 0 -13 3 -13 6 0 11 -95 8 -102 -3 -6 -8 -8 -8
-8 0 0 6 -22 11 -55 11 -33 0 -55 -5 -55 -11 0 -8 -2 -8 -8 0 -4 6 -29 11 -57
11 -27 0 -53 -5 -57 -11 -6 -8 -8 -8 -8 0 0 13 -89 13 -109 0 -9 -6 -12 -5 -8
1 4 6 -21 10 -63 10 -43 0 -70 -5 -70 -11 0 -8 -2 -8 -8 0 -4 6 -34 10 -67 10
-33 0 -63 -4 -67 -10 -6 -8 -8 -8 -8 0 0 6 -22 11 -55 11 -33 0 -55 -5 -55
-11 0 -8 -2 -8 -8 0 -4 6 -29 11 -57 11 -27 0 -53 -5 -57 -11 -6 -8 -8 -8 -8
0 0 13 -89 13 -109 0 -9 -6 -12 -5 -8 1 8 13 -122 12 -142 -1 -10 -6 -12 -6
-7 3 5 8 3 12 -5 10 -8 -1 -25 -1 -38 0 -18 1 -21 4 -12 14 6 8 8 16 5 20 -7
7 -8 187 -1 194 3 3 2 15 -3 28 -5 14 -5 26 3 34 8 8 8 11 -2 11 -10 0 -11 3
-2 13 6 8 8 17 5 20 -8 8 -8 126 -1 134 3 3 2 15 -3 28 -5 14 -5 26 3 34 8 8
8 11 -2 11 -10 0 -11 3 -2 13 6 8 8 17 5 20 -8 8 -8 126 -1 134 3 3 2 15 -3
28 -5 14 -5 26 3 34 8 8 8 11 -2 11 -10 0 -11 3 -2 13 6 8 8 17 5 20 -8 8 -8
126 -1 134 3 3 2 15 -3 28 -5 14 -5 26 3 34 8 8 8 11 -2 11 -10 0 -11 3 -2 13
6 8 8 17 5 20 -8 8 -8 126 -1 134 3 3 2 15 -3 28 -5 14 -5 26 3 34 8 8 8 11
-2 11 -10 0 -11 3 -2 13 6 8 8 17 5 20 -8 8 -8 126 -1 134 3 3 2 15 -3 28 -5
14 -5 26 3 34 8 8 8 11 -2 11 -10 0 -11 3 -2 13 6 8 8 17 5 20 -8 8 -8 126 -1
134 3 3 2 15 -3 28 -5 14 -5 26 3 34 8 8 8 11 -2 11 -10 0 -11 3 -2 14 7 8 8
17 3 20 -5 3 -7 19 -4 36 2 16 0 30 -6 30 -5 0 -8 14 -7 30 1 17 -1 30 -6 30
-5 0 -6 7 -3 15 4 9 0 15 -7 15 -11 0 -11 3 1 10 10 6 11 10 3 10 -7 0 -13 7
-13 15 0 8 -5 15 -11 15 -5 0 -8 4 -5 8 3 5 -1 20 -9 35 -10 20 -11 27 -2 27
7 0 6 4 -3 9 -8 6 -17 8 -21 5 -4 -2 -5 6 -1 18 3 14 2 19 -6 14 -7 -4 -12 -1
-12 9 0 10 5 14 13 10 6 -4 3 1 -8 10 -11 9 -19 20 -18 25 2 5 -6 12 -17 15
-11 4 -20 11 -20 16 0 6 5 7 12 3 7 -4 8 -3 4 4 -4 7 -13 12 -21 12 -8 0 -17
5 -21 12 -5 7 -3 8 7 3 12 -8 12 -6 0 8 -7 9 -18 14 -24 10 -6 -3 -7 -1 -3 6
4 6 0 14 -8 17 -9 3 -13 11 -9 18 4 6 -2 4 -12 -4 -10 -8 -16 -10 -12 -3 4 6
-3 22 -15 35 -15 16 -18 17 -8 3 15 -20 15 -20 -7 -1 -13 11 -23 25 -23 33 0
8 -4 12 -8 9 -5 -3 -15 4 -22 15 -8 10 -20 19 -28 19 -7 0 -15 7 -18 15 -4 8
-10 12 -15 9 -5 -3 -9 0 -9 5 0 6 -7 11 -15 11 -9 0 -18 6 -21 14 -3 8 -13 12
-23 9 -9 -2 -23 3 -30 11 -16 19 -35 21 -26 4 4 -7 0 -5 -8 5 -9 10 -21 19
-29 21 -7 1 -19 5 -25 9 -8 5 -13 3 -13 -5 0 -11 -2 -11 -9 0 -4 7 -18 14 -29
15 -12 1 -22 4 -22 8 0 3 -16 5 -35 4 -19 -1 -35 3 -35 8 0 6 -3 8 -6 5 -3 -4
-19 -2 -35 2 -17 5 -29 5 -29 0 0 -6 -9 -6 -23 -1 -14 5 -30 5 -40 0 -11 -7
-17 -6 -17 1 0 7 -6 8 -19 1 -10 -6 -34 -12 -55 -14 -20 -2 -39 -7 -43 -10 -3
-4 -13 -1 -21 6 -13 9 -14 9 -8 0 5 -9 0 -13 -16 -14 -13 -1 -27 -2 -33 -4 -5
-1 -16 -3 -23 -3 -7 -1 -10 -6 -7 -12 4 -6 -5 -10 -19 -10 -14 0 -26 -4 -26
-8 0 -8 -7 -10 -50 -14 -11 -1 -20 -8 -20 -15 0 -7 -7 -10 -17 -6 -12 5 -14 3
-8 -7 6 -10 3 -12 -13 -8 -12 4 -20 3 -17 -2 3 -4 -3 -14 -12 -21 -14 -12 -16
-12 -9 1 4 8 0 6 -8 -4 -9 -11 -16 -16 -16 -11 0 5 -7 -1 -16 -13 -8 -12 -20
-20 -25 -17 -5 4 -9 1 -9 -5 0 -6 -5 -8 -12 -4 -9 5 -8 2 1 -9 12 -15 12 -17
-2 -11 -11 4 -20 -2 -28 -20 -7 -14 -17 -23 -22 -19 -7 4 -8 0 -4 -11 5 -14 3
-17 -8 -12 -8 3 -15 1 -15 -5 0 -6 -5 -7 -12 -3 -7 4 -8 3 -4 -5 5 -7 -1 -20
-13 -30 -11 -10 -18 -21 -14 -25 3 -3 -1 -6 -10 -6 -10 0 -14 -5 -11 -15 4 -8
1 -15 -6 -15 -6 0 -8 -4 -5 -10 3 -5 -3 -15 -14 -22 -16 -10 -18 -15 -8 -27 9
-12 9 -13 -1 -7 -8 5 -14 -2 -18 -23 -4 -16 -13 -33 -22 -36 -14 -5 -14 -7 -2
-15 11 -7 12 -10 2 -10 -7 0 -10 -4 -7 -10 3 -5 2 -10 -2 -10 -5 0 -9 -10 -10
-22 -1 -11 -6 -24 -10 -27 -8 -6 -14 -24 -16 -53 -1 -10 -4 -18 -7 -18 -3 0
-5 -148 -4 -330 1 -217 -2 -327 -9 -323 -6 4 -7 1 -1 -8 13 -20 14 -480 1
-472 -6 4 -7 1 -1 -8 14 -21 14 -480 0 -472 -8 5 -8 3 0 -8 9 -11 13 -211 5
-239 0 -3 -65 -5 -143 -4 -90 1 -148 -3 -157 -10 -10 -7 -13 -7 -8 0 4 7 -26
10 -93 10 -62 0 -97 -3 -93 -9 4 -6 1 -7 -8 -1 -21 13 -119 14 -119 0 0 -8 -2
-8 -8 0 -8 13 -101 13 -121 0 -9 -6 -12 -5 -8 1 8 13 -162 12 -182 -1 -9 -6
-12 -5 -8 1 4 6 -31 9 -93 9 -62 0 -97 -3 -93 -9 4 -6 1 -7 -8 -1 -21 13 -119
14 -119 0 0 -8 -2 -8 -8 0 -8 13 -101 13 -121 0 -9 -6 -12 -5 -8 1 4 6 -49 9
-138 9 -91 0 -142 -3 -138 -9 4 -6 1 -7 -8 -1 -19 12 -138 14 -145 3 -3 -5
-11 -6 -17 -2 -19 12 -108 12 -100 0 4 -6 1 -7 -8 -1 -20 13 -120 14 -112 1 4
-6 1 -7 -8 -1 -20 13 -120 14 -112 1 4 -6 1 -7 -8 -1 -8 5 -32 10 -54 10 -22
1 -45 2 -52 3 -9 1 -11 46 -11 166 1 91 -1 168 -5 171 -3 3 -4 11 -1 17 8 24
10 98 2 103 -5 3 -5 10 -2 16 8 13 9 336 1 344 -3 3 -4 11 -1 17 8 24 10 98 2
103 -5 3 -5 10 -2 16 8 13 9 336 1 344 -3 3 -4 11 -1 17 8 24 10 98 2 103 -5
3 -5 10 -2 16 8 12 10 336 2 343 -3 4 -2 22 2 41 5 19 4 37 -1 40 -5 3 -7 9
-4 14 3 5 1 11 -3 14 -5 3 -8 17 -7 31 2 14 -2 28 -7 32 -7 4 -8 1 -3 -8 5 -8
4 -11 0 -6 -5 4 -10 17 -12 29 -2 12 -8 25 -14 29 -8 5 -8 9 0 14 9 5 7 12 -6
23 -10 10 -20 26 -21 37 -2 11 -8 22 -13 23 -5 2 -9 10 -9 18 0 8 -9 24 -20
36 -10 12 -17 25 -14 30 3 4 -2 8 -11 8 -9 0 -14 4 -11 9 3 5 -1 11 -9 15 -8
3 -15 12 -15 20 0 7 -7 16 -15 20 -8 3 -14 9 -13 14 4 13 -72 83 -82 77 -4 -3
-10 2 -14 10 -3 8 -12 15 -21 15 -8 0 -15 7 -15 16 0 8 -4 12 -10 9 -5 -3 -10
-1 -10 4 0 6 -7 11 -16 11 -8 0 -12 5 -8 11 4 8 0 9 -15 4 -15 -4 -21 -3 -19
7 2 7 -3 12 -9 11 -7 -2 -13 2 -13 7 0 5 -3 9 -7 8 -19 -4 -62 15 -56 25 4 6
0 8 -10 4 -9 -3 -19 -2 -22 2 -3 5 -14 7 -25 4 -11 -3 -20 0 -20 6 0 6 -3 10
-7 10 -22 -4 -43 2 -39 10 3 5 -11 8 -31 6 -21 -1 -59 4 -85 11 -26 7 -48 9
-48 6 0 -4 -29 -5 -65 -4 -36 2 -65 0 -65 -5 0 -5 -16 -9 -35 -8 -20 1 -38 -2
-41 -7 -3 -4 -10 -6 -15 -3 -5 4 -9 2 -9 -3 0 -5 -13 -8 -30 -7 -16 1 -27 -1
-24 -6 5 -8 -17 -14 -38 -10 -5 0 -8 -4 -8 -11 0 -6 -3 -9 -6 -5 -4 3 -13 -1
-22 -9 -12 -13 -16 -13 -23 -2 -7 10 -9 8 -9 -6 0 -11 -3 -16 -6 -13 -4 4 -20
-3 -37 -15 -17 -12 -27 -16 -22 -8 5 9 4 11 -3 6 -7 -4 -12 -14 -12 -22 0 -8
-3 -13 -8 -11 -4 3 -23 -4 -42 -15 -19 -10 -27 -17 -17 -14 28 9 20 0 -27 -30
-25 -16 -42 -32 -40 -36 3 -4 0 -8 -6 -8 -6 0 -8 -5 -4 -12 5 -8 2 -9 -10 -5
-10 4 -15 3 -11 -3 3 -6 -1 -13 -9 -16 -9 -3 -16 -13 -16 -21 0 -8 -4 -12 -9
-8 -6 3 -15 -5 -22 -17 -7 -13 -20 -29 -29 -35 -10 -7 -21 -28 -24 -46 -3 -19
-17 -44 -31 -57 -19 -18 -22 -26 -14 -37 9 -10 8 -13 0 -13 -7 0 -9 -5 -6 -10
3 -6 -1 -13 -9 -16 -9 -3 -14 -10 -11 -14 3 -4 -1 -23 -9 -41 -7 -19 -12 -42
-11 -51 2 -10 -1 -18 -7 -18 -7 0 -6 -5 1 -14 9 -10 9 -15 1 -18 -8 -2 -12
-47 -12 -138 0 -74 1 -139 2 -145 1 -5 1 -14 0 -20 -4 -21 0 -167 5 -175 3 -5
-1 -11 -7 -13 -10 -4 -10 -8 1 -15 8 -6 9 -12 3 -16 -9 -5 -8 -56 2 -83 3 -6
2 -14 -1 -17 -8 -7 -5 -164 2 -176 3 -5 -1 -11 -7 -14 -11 -5 -11 -7 0 -12 6
-3 10 -10 6 -15 -3 -5 -6 -231 -7 -501 l-2 -493 -30 0 c-16 0 -35 -3 -41 -7
-6 -4 -14 -4 -18 0 -12 12 -136 10 -136 -2 0 -8 -3 -8 -8 0 -10 14 -112 14
-112 0 0 -8 -2 -8 -8 0 -9 14 -105 14 -114 0 -6 -8 -8 -8 -8 0 0 13 -89 13
-109 0 -9 -6 -12 -5 -8 1 4 6 -21 10 -63 10 -43 0 -70 -5 -70 -11 0 -8 -2 -8
-8 0 -9 14 -125 14 -134 0 -6 -8 -8 -8 -8 0 0 6 -22 11 -55 11 -33 0 -55 -5
-55 -11 0 -8 -2 -8 -8 0 -4 6 -29 11 -57 11 -27 0 -53 -5 -57 -11 -6 -8 -8 -8
-8 0 0 13 -89 13 -109 0 -9 -6 -12 -5 -8 1 4 6 -21 10 -63 10 -43 0 -70 -5
-70 -11 0 -8 -2 -8 -8 0 -9 14 -125 14 -134 0 -6 -8 -8 -8 -8 0 0 6 -22 11
-55 11 -33 0 -55 -5 -55 -11 0 -8 -2 -8 -8 0 -4 6 -29 11 -57 11 -27 0 -53 -5
-57 -11 -6 -8 -8 -8 -8 0 0 13 -89 13 -109 0 -9 -6 -12 -5 -8 1 9 14 -126 12
-135 -1 -6 -8 -8 -8 -8 0 0 12 -158 14 -177 1 -6 -4 -14 -3 -17 2 -4 5 -38 8
-76 7 -65 -2 -70 -1 -71 18 0 12 -2 36 -3 54 -2 19 1 32 8 32 7 0 7 3 1 8 -13
9 -14 105 0 114 6 5 6 8 0 8 -13 0 -13 150 0 150 7 0 7 3 0 8 -13 9 -14 105 0
114 6 5 6 8 0 8 -13 0 -14 110 0 110 6 0 7 3 0 8 -13 9 -14 105 0 114 6 5 6 8
0 8 -13 0 -14 110 0 110 6 0 7 3 0 8 -14 10 -14 464 0 474 7 5 7 8 0 8 -13 0
-14 110 0 110 6 0 7 3 0 8 -13 9 -14 105 0 114 6 5 6 8 0 8 -5 0 -10 25 -10
55 -1 30 3 55 8 55 6 0 6 5 1 13 -5 6 -9 38 -9 69 1 34 -3 54 -9 51 -5 -4 -7
1 -3 10 4 10 1 17 -5 17 -9 0 -9 3 0 12 8 8 8 19 -3 45 -8 18 -11 33 -7 33 4
0 1 4 -7 9 -13 8 -17 19 -23 69 -1 6 -8 12 -17 12 -14 0 -14 2 -1 10 12 7 12
10 1 10 -8 0 -11 6 -7 16 3 8 2 12 -4 9 -6 -3 -10 3 -10 15 0 12 -4 18 -10 15
-5 -3 -10 0 -10 8 0 7 -9 23 -20 35 -11 12 -20 25 -20 29 0 5 -9 15 -20 23
-11 8 -20 20 -20 28 0 7 -4 10 -10 7 -9 -6 -15 8 -11 29 1 5 -6 3 -16 -4 -10
-8 -15 -11 -11 -6 10 12 -10 46 -27 46 -7 0 -17 5 -21 12 -4 7 -3 8 4 4 7 -4
12 -5 12 -1 0 3 -12 10 -26 15 -14 6 -22 14 -19 20 3 5 -1 10 -9 10 -8 0 -18
5 -22 12 -5 7 -2 8 7 3 8 -5 11 -4 6 0 -4 5 -17 10 -29 12 -11 2 -27 11 -35
21 -8 9 -12 11 -8 5 9 -18 2 -16 -23 6 -12 10 -18 22 -14 27 4 4 -1 2 -10 -5
-14 -10 -18 -11 -18 -1 0 7 -8 10 -20 7 -11 -3 -18 -1 -15 3 3 4 -21 16 -52
25 -32 9 -65 19 -73 22 -8 3 -33 7 -54 9 -21 1 -42 7 -46 13 -3 6 -8 9 -11 7z
m10992 -3133 c13 -16 12 -17 -3 -4 -17 13 -22 21 -14 21 2 0 10 -8 17 -17z
m-11368 -1148 c37 0 67 2 67 5 0 3 27 3 61 0 33 -3 62 -3 64 0 2 3 29 3 60 0
31 -3 58 -4 60 -1 1 3 83 4 180 1 97 -3 179 -2 180 1 2 3 29 2 60 -1 31 -3 58
-4 60 -1 1 3 83 4 180 1 97 -3 179 -2 180 1 2 3 29 2 60 -1 31 -3 58 -4 60 -1
1 3 55 4 120 1 67 -3 120 -1 126 4 6 6 9 6 9 0 0 -5 32 -9 70 -9 39 0 70 2 70
5 0 3 36 3 81 0 44 -3 84 -1 90 5 6 6 9 6 9 0 0 -6 32 -10 70 -10 39 0 70 2
70 5 0 3 27 3 61 0 33 -3 62 -3 64 0 2 3 29 3 60 0 31 -3 58 -4 60 -1 1 3 83
4 180 1 97 -3 179 -2 180 1 2 3 29 2 60 -1 31 -3 58 -4 60 -1 1 3 83 4 180 1
97 -3 179 -2 180 1 2 3 29 2 60 -1 31 -3 58 -4 60 -1 1 3 55 4 120 1 67 -3
120 -1 126 4 6 6 9 6 9 0 0 -5 32 -9 70 -9 39 0 70 2 70 5 0 3 36 3 81 0 44
-3 84 -1 90 4 6 6 9 6 9 0 0 -5 32 -9 70 -9 39 0 70 2 70 5 0 3 63 3 141 0 78
-3 143 -2 144 1 2 3 29 2 60 -1 31 -3 58 -4 60 -1 2 3 119 4 260 1 141 -3 258
-2 260 1 2 3 29 2 60 -1 31 -3 58 -4 60 -1 2 3 119 4 260 1 141 -3 258 -2 260
1 2 3 29 2 60 -1 31 -3 58 -4 60 -1 2 3 119 4 260 1 141 -3 258 -2 260 1 2 3
29 2 60 -1 31 -3 58 -4 60 -1 2 3 119 4 260 1 141 -3 258 -2 260 1 2 3 29 2
60 -1 31 -3 58 -4 60 -1 2 3 119 4 260 1 141 -3 258 -2 260 1 2 3 29 2 60 -1
31 -3 58 -4 60 -1 2 3 119 4 260 1 141 -3 258 -2 260 1 2 3 29 2 60 -1 31 -3
58 -2 61 2 3 5 9 6 13 3 5 -2 133 -5 285 -5 152 -1 276 -5 276 -10 0 -4 8 -7
18 -5 9 1 25 -2 36 -7 14 -8 17 -7 10 4 -5 8 3 6 20 -6 16 -10 25 -12 21 -5
-6 8 -4 10 6 3 8 -5 25 -10 39 -12 13 -2 27 -6 30 -10 6 -8 19 -11 55 -14 14
-1 25 -6 25 -10 0 -4 9 -5 20 -3 11 2 20 -1 20 -7 0 -6 3 -9 6 -5 4 3 13 -1
21 -9 8 -8 19 -12 24 -9 5 4 9 1 9 -4 0 -6 9 -11 20 -11 11 0 20 -5 20 -10 0
-7 7 -7 20 0 11 6 20 7 19 3 -4 -23 3 -31 21 -28 11 2 18 0 15 -6 -4 -5 2 -12
12 -16 10 -4 21 -11 25 -17 5 -7 8 -7 8 2 0 10 3 10 14 0 8 -7 12 -16 9 -20
-2 -4 3 -5 11 -2 9 3 16 1 16 -6 0 -6 5 -8 10 -5 6 3 10 1 10 -4 0 -6 9 -11
20 -11 11 0 20 -4 20 -10 0 -5 -8 -7 -17 -3 -15 5 -14 3 2 -10 13 -10 22 -12
26 -5 4 6 10 1 14 -10 3 -12 9 -21 13 -21 17 3 32 -2 30 -8 -2 -5 1 -9 7 -10
5 -1 12 -11 17 -22 4 -12 14 -21 23 -21 8 0 14 -3 14 -7 -3 -20 2 -33 12 -33
7 0 18 -8 26 -17 8 -10 11 -12 7 -4 -5 10 -3 12 5 7 7 -5 10 -14 7 -22 -3 -9
0 -11 11 -7 11 4 14 3 9 -5 -4 -7 -1 -15 8 -18 9 -3 13 -10 10 -15 -3 -5 3 -6
12 -2 13 5 15 3 9 -7 -6 -10 -4 -12 9 -7 9 4 15 3 12 -2 -8 -12 23 -71 40 -78
8 -3 12 -8 9 -12 -2 -4 5 -14 16 -21 10 -8 19 -22 19 -32 0 -10 3 -18 8 -18 4
0 13 -9 20 -21 10 -16 10 -19 1 -13 -7 4 -4 -5 7 -19 10 -15 24 -27 29 -27 6
0 3 -5 -5 -10 -13 -8 -12 -10 4 -10 16 0 17 -2 5 -17 -8 -9 -9 -14 -3 -10 14
8 27 -20 17 -35 -3 -7 -1 -8 5 -4 11 7 17 -6 13 -28 -1 -5 3 -12 9 -16 6 -4
12 -17 13 -28 1 -12 5 -22 10 -22 5 0 7 -9 4 -20 -3 -11 -1 -20 5 -20 6 0 8
-9 5 -20 -3 -11 -1 -20 4 -20 5 0 9 -13 9 -30 0 -16 4 -30 8 -30 5 0 8 -19 8
-41 -1 -24 4 -48 12 -55 9 -9 9 -14 2 -14 -6 0 -8 -5 -3 -12 12 -20 11 -58 -1
-58 -7 0 -7 -3 -1 -8 13 -9 15 -52 3 -52 -5 0 -4 -8 1 -18 7 -13 6 -23 -1 -30
-8 -8 -8 -12 -2 -12 9 0 11 -32 4 -50 -1 -3 -1 -9 0 -15 7 -32 6 -65 -2 -65
-7 0 -7 -4 0 -12 6 -7 10 -17 10 -23 0 -5 -4 -16 -10 -22 -6 -7 -6 -13 -2 -13
5 0 9 -27 9 -60 0 -34 -4 -60 -10 -60 -7 0 -6 -3 0 -8 6 -4 11 -16 11 -27 0
-11 -5 -23 -11 -27 -7 -5 -7 -8 0 -8 6 0 10 -16 10 -35 0 -19 -4 -35 -8 -35
-5 0 -5 -6 0 -12 10 -17 11 -68 1 -74 -5 -3 -6 -10 -3 -15 12 -18 14 -49 3
-49 -6 0 -5 -7 3 -17 8 -9 14 -17 14 -18 0 -1 -6 -9 -14 -18 -7 -10 -9 -17 -4
-17 5 0 9 -22 8 -50 0 -27 -4 -50 -8 -50 -5 0 -5 -6 0 -12 10 -17 11 -68 1
-74 -5 -3 -6 -10 -3 -15 12 -18 14 -49 3 -49 -7 0 -7 -4 0 -12 17 -21 17 -24
3 -41 -7 -10 -9 -17 -4 -17 13 0 11 -103 -2 -112 -7 -5 -7 -8 0 -8 6 0 10 -11
10 -25 0 -14 -4 -25 -8 -25 -5 0 -5 -6 0 -12 10 -17 11 -68 1 -74 -4 -3 -4
-13 1 -23 6 -10 6 -23 1 -31 -5 -8 -6 -19 -3 -24 11 -18 10 -106 -1 -106 -8 0
-8 -3 -1 -8 6 -4 11 -16 11 -27 0 -11 -5 -23 -11 -27 -7 -5 -7 -8 1 -8 11 0
12 -60 0 -78 -4 -7 -4 -12 1 -12 4 0 8 -13 8 -30 1 -16 -3 -30 -8 -30 -4 0 -5
-6 0 -12 11 -19 11 -58 0 -58 -6 0 -5 -5 1 -12 17 -21 17 -24 3 -41 -7 -10 -9
-17 -4 -17 12 0 11 -113 -2 -122 -7 -5 -6 -8 1 -8 5 0 10 -11 10 -25 0 -14 -5
-25 -10 -25 -8 0 -8 -3 -1 -8 13 -9 13 -75 0 -84 -7 -5 -6 -8 0 -8 12 0 13
-40 1 -58 -4 -7 -3 -12 2 -12 10 0 9 -56 -1 -66 -3 -4 -2 -14 3 -23 5 -10 5
-23 0 -31 -5 -8 -6 -18 -3 -24 10 -15 10 -86 0 -86 -4 0 -5 -6 0 -12 10 -17
11 -68 1 -74 -5 -3 -6 -10 -3 -15 12 -18 14 -49 3 -49 -6 0 -5 -7 3 -17 14
-17 14 -20 -3 -40 -6 -7 -6 -13 -1 -13 5 0 9 -22 8 -50 0 -27 -4 -50 -8 -50
-5 0 -5 -6 0 -12 10 -17 11 -68 1 -74 -5 -3 -6 -10 -3 -15 12 -18 14 -49 3
-49 -6 0 -5 -7 3 -17 14 -17 14 -20 -3 -40 -6 -7 -6 -13 -2 -13 5 0 9 -27 9
-60 0 -34 -4 -60 -10 -60 -7 0 -6 -3 0 -8 6 -4 11 -16 11 -27 0 -11 -5 -23
-11 -27 -7 -5 -7 -8 1 -8 11 0 12 -60 0 -78 -4 -7 -4 -12 1 -12 4 0 8 -13 8
-30 1 -16 -3 -30 -8 -30 -4 0 -5 -6 0 -12 11 -19 11 -58 0 -58 -6 0 -5 -5 1
-12 17 -21 17 -24 3 -41 -7 -10 -9 -17 -5 -17 5 0 9 -27 9 -60 0 -34 -4 -60
-10 -60 -7 0 -6 -3 0 -8 6 -4 11 -16 11 -27 0 -11 -5 -23 -11 -27 -7 -5 -7 -8
0 -8 6 0 11 -16 11 -35 0 -19 -5 -35 -11 -35 -7 0 -7 -3 0 -8 6 -4 11 -16 11
-27 0 -11 -5 -23 -11 -27 -7 -5 -7 -8 1 -8 5 0 10 -11 10 -25 0 -14 -4 -25 -8
-25 -5 0 -4 -8 1 -18 7 -13 6 -23 -1 -30 -8 -8 -8 -12 -2 -12 9 0 11 -32 4
-50 -1 -3 -1 -9 0 -15 7 -31 6 -65 -2 -65 -5 0 -6 -6 -1 -12 11 -18 11 -31 0
-45 -5 -7 -5 -13 -1 -13 5 0 9 -27 9 -60 0 -34 -4 -60 -10 -60 -7 0 -6 -3 0
-8 6 -4 11 -16 11 -27 0 -11 -5 -23 -11 -27 -7 -5 -7 -8 0 -8 6 0 11 -20 11
-45 0 -25 -5 -45 -11 -45 -7 0 -7 -3 0 -8 6 -4 11 -16 11 -27 0 -11 -5 -23
-11 -27 -7 -5 -7 -8 1 -8 11 0 12 -60 0 -78 -4 -7 -4 -12 1 -12 4 0 8 -13 8
-30 1 -16 -3 -30 -8 -30 -4 0 -5 -6 0 -12 11 -18 12 -58 1 -58 -5 0 -6 -6 -1
-12 11 -18 11 -31 0 -45 -5 -7 -5 -13 -1 -13 5 0 9 -27 9 -60 0 -34 -4 -60
-10 -60 -7 0 -6 -3 0 -8 6 -4 11 -16 11 -27 0 -11 -5 -23 -11 -27 -7 -5 -7 -8
0 -8 6 0 11 -16 11 -35 0 -19 -5 -35 -11 -35 -7 0 -7 -3 0 -8 6 -4 11 -16 11
-27 0 -11 -5 -23 -11 -27 -7 -5 -7 -8 1 -8 5 0 10 -11 10 -25 0 -14 -4 -25 -8
-25 -5 0 -4 -8 1 -18 7 -13 6 -23 -1 -30 -8 -8 -8 -12 -2 -12 9 0 11 -32 4
-50 -1 -3 -1 -9 0 -15 7 -31 6 -65 -2 -65 -5 0 -6 -6 -1 -12 11 -18 11 -31 0
-45 -5 -7 -5 -13 -1 -13 5 0 9 -27 9 -60 0 -34 -4 -60 -10 -60 -7 0 -6 -3 0
-8 14 -9 14 -45 0 -54 -7 -5 -7 -8 0 -8 6 0 10 -16 10 -35 0 -19 -4 -35 -8
-35 -5 0 -5 -6 0 -12 10 -17 11 -68 1 -74 -5 -3 -6 -10 -3 -15 12 -18 14 -49
4 -49 -6 0 -7 -6 -2 -12 11 -18 11 -31 0 -45 -6 -8 -6 -13 0 -13 5 0 9 -22 8
-50 0 -27 -4 -50 -8 -50 -5 0 -5 -6 0 -12 10 -17 11 -68 1 -74 -5 -3 -6 -10
-3 -15 12 -18 14 -49 4 -49 -6 0 -7 -6 -2 -12 11 -18 11 -31 0 -45 -6 -8 -6
-13 0 -13 13 0 11 -103 -2 -112 -7 -5 -7 -8 0 -8 6 0 10 -11 10 -25 0 -14 -4
-25 -8 -25 -5 0 -5 -6 0 -12 10 -17 11 -68 1 -74 -4 -3 -4 -13 1 -23 6 -10 6
-23 1 -31 -5 -8 -6 -19 -3 -24 11 -18 10 -106 -1 -106 -8 0 -8 -3 -1 -8 6 -4
11 -16 11 -27 0 -11 -5 -23 -11 -27 -7 -5 -7 -8 1 -8 11 0 12 -60 0 -78 -4 -7
-4 -12 1 -12 4 0 8 -13 8 -30 1 -16 -3 -30 -8 -30 -4 0 -5 -6 0 -12 11 -18 12
-58 1 -58 -5 0 -6 -6 -1 -12 11 -18 11 -31 0 -45 -6 -8 -6 -13 0 -13 12 0 11
-113 -2 -122 -7 -5 -6 -8 1 -8 5 0 10 -11 10 -25 0 -14 -5 -25 -10 -25 -8 0
-8 -3 -1 -8 13 -9 13 -75 0 -84 -7 -5 -6 -8 0 -8 12 0 13 -40 1 -58 -4 -7 -3
-12 2 -12 10 0 9 -56 -1 -66 -3 -4 -2 -14 3 -23 5 -10 5 -23 0 -31 -5 -8 -6
-18 -3 -24 10 -15 10 -86 0 -86 -4 0 -5 -6 0 -12 10 -17 11 -68 1 -74 -5 -3
-6 -10 -3 -15 12 -18 14 -49 4 -49 -6 0 -7 -6 -2 -12 11 -18 11 -31 0 -45 -6
-8 -6 -13 0 -13 5 0 9 -22 8 -50 0 -27 -4 -50 -8 -50 -5 0 -5 -6 0 -12 10 -17
11 -68 1 -74 -5 -3 -6 -10 -3 -15 12 -18 14 -49 4 -49 -6 0 -7 -6 -2 -12 11
-18 11 -31 0 -45 -5 -7 -5 -13 -1 -13 5 0 9 -27 9 -60 0 -34 -4 -60 -10 -60
-7 0 -6 -3 0 -8 6 -4 11 -16 11 -27 0 -11 -5 -23 -11 -27 -7 -5 -7 -8 1 -8 11
0 12 -60 0 -78 -4 -7 -4 -12 1 -12 4 0 8 -13 8 -30 1 -16 -3 -30 -8 -30 -4 0
-5 -6 0 -12 11 -18 12 -58 1 -58 -5 0 -6 -6 -1 -12 11 -18 11 -31 0 -45 -5 -7
-5 -13 -1 -13 5 0 9 -27 9 -60 0 -34 -4 -60 -10 -60 -7 0 -6 -3 0 -8 6 -4 11
-16 11 -27 0 -11 -5 -23 -11 -27 -7 -5 -7 -8 0 -8 6 0 11 -16 11 -35 0 -19 -5
-35 -11 -35 -7 0 -7 -3 0 -8 6 -4 11 -16 11 -27 0 -11 -5 -23 -11 -27 -7 -5
-7 -8 1 -8 5 0 10 -11 10 -25 0 -14 -4 -25 -8 -25 -5 0 -4 -8 1 -18 7 -13 6
-23 -1 -30 -8 -8 -8 -12 -2 -12 11 0 12 -35 1 -46 -3 -4 -2 -14 2 -23 13 -23
13 -28 -2 -59 -8 -15 -12 -33 -10 -40 3 -7 -1 -20 -9 -29 -11 -14 -11 -16 2
-8 13 8 13 6 2 -8 -8 -9 -11 -21 -7 -27 3 -5 2 -10 -3 -10 -5 0 -9 -6 -10 -12
-6 -45 -16 -78 -24 -78 -6 0 -8 -7 -4 -15 3 -8 1 -15 -4 -15 -5 0 -7 -7 -4
-15 4 -8 1 -15 -5 -15 -6 0 -10 -3 -9 -7 1 -5 -3 -18 -10 -29 -6 -12 -8 -24
-5 -28 3 -3 0 -6 -7 -6 -7 0 -10 -3 -7 -7 4 -3 -1 -12 -11 -20 -9 -8 -12 -12
-6 -9 6 3 11 -1 11 -9 0 -8 -5 -13 -11 -12 -6 1 -10 -4 -9 -10 2 -7 -2 -13 -7
-13 -6 0 -10 -7 -10 -15 0 -8 -4 -15 -10 -15 -5 0 -9 -3 -8 -7 3 -15 -22 -63
-32 -63 -5 0 -9 -3 -9 -7 4 -23 -3 -32 -18 -26 -16 6 -16 5 -4 -11 12 -15 12
-17 0 -14 -8 2 -13 -4 -13 -14 1 -10 -8 -19 -22 -22 -17 -5 -21 -11 -17 -23 4
-10 2 -14 -4 -10 -6 4 -14 0 -17 -9 -3 -8 -10 -13 -15 -9 -6 3 -8 -4 -6 -16 3
-16 0 -19 -12 -15 -10 4 -14 2 -10 -8 4 -9 -1 -17 -13 -21 -10 -3 -21 -13 -24
-21 -3 -9 -11 -12 -18 -8 -8 5 -7 0 2 -11 9 -11 10 -16 3 -11 -8 4 -13 2 -13
-5 0 -7 -3 -10 -6 -6 -4 3 -13 -1 -21 -9 -8 -8 -19 -12 -24 -9 -5 4 -9 -1 -9
-9 0 -9 -5 -16 -10 -16 -6 0 -15 -10 -20 -22 -5 -13 -9 -17 -9 -10 -1 10 -4
10 -15 0 -8 -7 -11 -17 -8 -23 3 -5 -1 -4 -10 3 -13 10 -18 10 -24 1 -4 -8 -3
-9 4 -5 7 4 12 2 12 -3 0 -6 -9 -11 -21 -11 -11 0 -17 -4 -14 -10 3 -5 -3 -10
-14 -10 -11 0 -26 -6 -33 -13 -24 -23 -71 -50 -62 -36 5 9 0 8 -16 -3 -14 -9
-24 -21 -23 -26 1 -6 -7 -7 -19 -4 -16 4 -19 2 -13 -8 5 -8 4 -11 -3 -6 -6 3
-27 -3 -48 -14 -20 -12 -39 -18 -42 -15 -3 3 -14 -3 -25 -12 -11 -10 -17 -13
-14 -6 5 8 1 8 -18 0 -14 -7 -25 -15 -25 -19 0 -4 -7 -5 -15 -2 -9 4 -15 0
-15 -7 0 -11 -3 -11 -10 1 -6 9 -10 10 -10 3 0 -6 -9 -10 -20 -8 -11 2 -20 0
-20 -5 0 -4 -16 -7 -35 -6 -19 1 -35 -2 -35 -6 0 -4 -8 -7 -17 -8 -95 -6
-9043 -4 -9043 2 0 4 -17 8 -38 8 -21 0 -44 6 -51 13 -11 10 -12 9 -6 -3 7
-12 6 -13 -6 -4 -14 12 -75 28 -83 22 -2 -2 -14 6 -27 17 -12 11 -19 14 -15 7
7 -12 4 -12 -15 -1 -13 7 -32 12 -41 10 -10 -1 -18 3 -18 9 0 6 -4 9 -9 6 -5
-3 -11 0 -14 8 -3 7 -22 17 -41 20 -25 5 -34 11 -29 19 4 7 0 7 -10 -2 -15
-12 -17 -11 -17 3 0 9 -6 15 -12 14 -7 -2 -12 3 -10 10 1 7 -3 12 -10 11 -24
-3 -41 1 -35 8 4 3 -2 13 -14 21 -11 8 -23 12 -26 9 -5 -6 -15 1 -48 31 -12
11 -15 11 -15 0 0 -7 -8 2 -16 19 -9 18 -20 30 -24 28 -5 -3 -11 -1 -15 5 -4
6 -11 8 -16 5 -5 -3 -6 1 -3 10 5 11 2 14 -12 8 -12 -4 -15 -3 -10 5 4 7 1 12
-9 12 -9 0 -19 9 -22 20 -3 11 -12 20 -19 20 -8 0 -14 7 -14 15 0 9 -6 12 -17
8 -10 -4 -14 -2 -9 5 4 6 -9 22 -31 36 -21 15 -33 26 -27 26 5 0 14 -3 20 -7
5 -5 -3 4 -18 18 -15 14 -25 29 -21 33 3 3 -1 6 -11 6 -9 0 -14 5 -11 10 3 6
1 10 -5 10 -6 0 -8 5 -5 10 3 6 2 10 -4 10 -5 0 -12 8 -16 19 -3 10 -17 31
-31 46 -13 14 -26 32 -27 38 -1 6 -8 18 -15 25 -7 8 -10 17 -7 22 3 4 -2 11
-11 14 -8 3 -12 10 -9 16 3 6 -1 13 -10 16 -13 6 -14 8 -3 15 10 7 11 9 0 9
-7 0 -10 5 -7 10 3 6 1 10 -4 10 -6 0 -10 3 -10 8 4 24 -2 42 -13 36 -6 -4 -8
-3 -5 3 4 6 1 16 -7 22 -8 7 -12 21 -9 31 3 12 0 20 -6 20 -7 0 -9 5 -6 10 4
6 2 17 -4 24 -6 7 -12 25 -13 40 -1 14 -5 26 -8 26 -3 0 -7 16 -8 37 -2 20 -6
41 -10 47 -3 6 -7 47 -7 92 -1 44 -6 87 -10 95 -13 19 -14 49 -2 42 6 -3 7 -1
3 6 -10 16 -14 101 -5 107 4 2 4 18 -1 34 -6 21 -5 30 3 30 8 0 8 3 2 8 -14 9
-13 65 0 74 7 5 6 8 0 8 -14 0 -13 70 0 70 6 0 6 3 0 8 -14 9 -13 65 0 74 7 5
6 8 -1 8 -6 0 -10 14 -10 30 0 17 3 30 8 30 5 0 4 9 -2 19 -7 14 -7 22 0 26 6
4 7 11 4 17 -12 19 -11 62 0 70 7 5 7 8 1 8 -6 0 -9 26 -7 62 3 83 3 97 -1
133 -2 17 1 33 7 37 7 5 7 8 1 8 -8 0 -9 30 -4 135 0 6 -2 22 -4 38 -2 15 -1
30 4 32 4 3 4 19 -1 35 -6 21 -5 30 3 30 8 0 8 3 2 8 -14 9 -13 65 0 74 7 5 6
8 0 8 -14 0 -13 70 0 70 6 0 6 3 0 8 -14 9 -13 65 0 74 7 5 6 8 -1 8 -6 0 -10
14 -10 30 0 17 3 30 8 30 5 0 4 9 -2 19 -7 14 -7 22 0 26 6 4 7 11 4 17 -12
19 -11 62 0 70 7 5 7 8 1 8 -6 0 -9 26 -7 62 3 83 3 97 -1 133 -2 17 1 33 7
37 7 5 7 8 1 8 -8 0 -9 30 -4 135 0 6 -2 22 -4 38 -2 15 -1 30 4 32 4 3 4 19
-1 35 -6 21 -5 30 3 30 8 0 8 3 2 8 -14 9 -13 65 0 74 7 5 6 8 0 8 -14 0 -13
70 0 70 6 0 6 3 0 8 -14 9 -13 65 0 74 7 5 6 8 -1 8 -6 0 -10 14 -10 30 0 17
3 30 8 30 5 0 4 9 -2 19 -7 14 -7 22 0 26 6 4 7 11 4 17 -12 19 -11 62 0 70 7
5 7 8 1 8 -6 0 -9 26 -7 62 3 83 3 97 -1 133 -2 17 1 33 7 37 7 5 7 8 1 8 -8
0 -9 30 -4 135 0 6 -2 22 -4 38 -2 15 -1 30 4 32 4 3 4 19 -1 35 -6 21 -5 30
3 30 8 0 8 3 2 8 -14 9 -13 65 0 74 7 5 6 8 0 8 -14 0 -13 70 0 70 6 0 6 3 0
8 -14 9 -13 65 0 74 7 5 6 8 -1 8 -6 0 -10 14 -10 30 0 17 3 30 8 30 5 0 4 9
-2 19 -7 14 -7 22 0 26 6 4 7 11 4 17 -12 19 -11 62 0 70 7 5 7 8 1 8 -6 0 -9
26 -7 62 3 83 3 97 -1 133 -2 17 1 33 7 37 7 5 7 8 1 8 -8 0 -9 30 -4 135 0 6
-2 22 -4 38 -2 15 -1 30 4 32 4 3 4 19 -1 35 -6 21 -5 30 3 30 8 0 8 3 2 8
-14 9 -13 65 0 74 7 5 6 8 0 8 -14 0 -13 70 0 70 6 0 6 3 0 8 -14 9 -13 65 0
74 7 5 6 8 -1 8 -6 0 -10 14 -10 30 0 17 3 30 8 30 5 0 4 9 -2 19 -7 14 -7 22
0 26 6 4 7 11 4 17 -12 19 -11 62 0 70 7 5 7 8 1 8 -6 0 -9 26 -7 62 3 83 3
97 -1 133 -2 17 1 33 7 37 7 5 7 8 1 8 -8 0 -9 30 -4 135 0 6 -2 22 -4 38 -2
15 -1 30 4 32 4 3 4 19 -1 35 -6 21 -5 30 3 30 8 0 8 3 2 8 -14 9 -13 65 0 74
7 5 6 8 0 8 -14 0 -13 70 0 70 6 0 6 3 0 8 -14 9 -13 65 0 74 7 5 6 8 -1 8 -6
0 -10 14 -10 30 0 17 3 30 8 30 5 0 4 9 -2 19 -7 14 -7 22 0 26 6 4 7 11 4 17
-12 19 -11 62 0 70 7 5 7 8 1 8 -6 0 -9 26 -7 62 3 83 3 97 -1 133 -2 17 1 33
7 37 7 5 7 8 1 8 -8 0 -9 30 -4 135 0 6 -2 22 -4 38 -2 15 -1 30 4 32 4 3 4
19 -1 35 -6 21 -5 30 3 30 8 0 8 3 2 8 -14 9 -13 65 0 74 7 5 6 8 0 8 -14 0
-13 70 0 70 6 0 6 3 0 8 -14 9 -13 65 0 74 7 5 6 8 -1 8 -6 0 -10 14 -10 30 0
17 3 30 8 30 5 0 4 9 -2 19 -7 14 -7 22 0 26 6 4 7 11 4 17 -12 19 -11 62 0
70 7 5 7 8 1 8 -6 0 -9 26 -7 62 3 83 3 97 -1 133 -2 17 1 33 7 37 7 5 7 8 1
8 -8 0 -9 30 -4 135 0 6 -2 22 -4 38 -2 15 -1 30 4 32 4 3 4 19 -1 35 -6 21
-5 30 3 30 8 0 8 3 2 8 -14 9 -13 65 0 74 7 5 6 8 0 8 -14 0 -13 70 0 70 6 0
6 3 0 8 -14 9 -13 65 0 74 7 5 6 8 -1 8 -6 0 -10 14 -10 30 0 17 3 30 8 30 5
0 4 9 -2 19 -7 14 -7 22 0 26 6 4 7 11 4 17 -12 19 -11 62 0 70 7 5 7 8 1 8
-6 0 -9 26 -7 62 3 83 3 97 -1 133 -2 17 1 33 7 37 7 5 7 8 1 8 -8 0 -9 30 -4
135 0 6 -2 22 -4 38 -2 15 -1 30 4 32 4 3 4 19 -1 35 -6 21 -5 30 3 30 8 0 8
3 2 8 -14 9 -13 65 0 74 7 5 6 8 0 8 -14 0 -13 70 0 70 6 0 6 3 0 8 -14 9 -13
65 0 74 7 5 6 8 -1 8 -6 0 -10 14 -10 30 0 17 3 30 8 30 5 0 4 9 -2 19 -7 14
-7 22 0 26 6 4 7 11 4 17 -12 19 -11 62 0 70 7 5 7 8 1 8 -6 0 -9 26 -7 62 3
83 3 97 -1 133 -2 17 1 33 7 37 7 5 7 8 1 8 -8 0 -9 30 -4 135 0 6 -2 22 -4
38 -2 15 -1 30 4 32 4 3 4 19 -1 35 -6 21 -5 30 3 30 8 0 8 3 2 8 -14 9 -13
65 0 74 7 5 6 8 0 8 -16 0 -12 93 4 104 11 7 11 10 0 17 -8 5 -9 9 -3 9 7 0
10 17 8 47 -2 30 1 50 9 55 9 6 8 8 -3 8 -12 0 -12 2 -2 9 7 4 14 18 15 29 1
12 5 22 9 22 4 0 5 9 3 20 -5 25 14 80 27 80 5 0 6 5 2 11 -3 6 -2 21 4 32 6
12 16 37 24 55 7 17 16 32 20 32 4 0 4 7 1 17 -4 10 -2 14 4 10 6 -4 9 3 7 18
-1 14 1 23 6 20 10 -6 22 24 14 36 -3 5 2 9 10 9 8 0 18 5 22 12 5 7 2 9 -7 4
-8 -5 -8 -2 2 6 9 7 14 19 12 26 -3 6 1 12 7 12 7 0 10 7 7 14 -4 10 -1 13 9
9 8 -3 14 1 14 11 0 9 6 16 13 16 9 0 8 3 -2 9 -11 7 -9 10 8 16 11 3 24 17
27 31 3 13 10 21 15 18 8 -5 13 9 10 28 0 5 2 7 7 7 20 -3 32 3 32 17 0 9 5
12 12 8 7 -5 9 -2 5 9 -4 12 -2 14 10 10 10 -4 14 -2 9 5 -3 6 3 13 14 17 11
4 18 11 15 16 -4 5 -1 9 5 9 6 0 8 4 5 10 -3 5 0 7 8 4 8 -3 20 3 28 13 13 17
13 17 -6 3 -18 -14 -19 -14 -7 2 8 10 22 20 33 23 11 4 17 11 14 16 -4 5 -1 9
5 9 6 0 8 4 5 10 -4 6 1 7 11 3 12 -4 15 -3 10 5 -4 7 -2 12 5 12 6 0 20 10
30 22 11 11 19 16 19 9 0 -15 19 2 39 34 10 15 11 16 7 2 -5 -15 -1 -14 24 4
16 12 26 27 23 32 -3 6 -1 7 5 3 6 -3 13 -2 17 3 3 6 13 7 22 4 12 -5 14 -3 8
7 -6 10 -3 12 13 8 12 -4 20 -2 16 3 -3 5 0 9 6 9 6 0 8 5 5 10 -3 6 -2 10 4
10 5 0 12 -6 14 -12 3 -8 6 -5 6 5 1 10 5 16 10 13 5 -3 23 1 40 10 17 8 35
13 41 9 5 -3 10 -1 10 4 0 6 3 10 8 10 21 -4 32 2 26 13 -5 8 -2 9 9 5 10 -4
17 -2 17 5 0 6 6 5 17 -3 11 -10 14 -10 9 -1 -6 11 11 17 37 13 4 0 7 4 7 10
0 5 5 7 10 4 6 -3 10 0 11 7 0 10 2 10 6 1 3 -9 10 -10 22 -3 10 5 21 6 25 3
3 -3 6 -2 6 3 0 6 27 9 60 8 33 -1 58 1 56 5 -3 4 24 8 60 8 36 0 68 3 71 7 4
3 9 3 12 -1 3 -5 36 -8 74 -8z m-5743 -9289 c0 -2 -8 -10 -17 -17 -16 -13 -17
-12 -4 4 13 16 21 21 21 13z"/>
<path d="M7229 13932 c-12 -2 -14 -467 -14 -3435 0 -1986 4 -3438 9 -3446 6
-9 5 -12 -2 -7 -9 5 -10 -38 -3 -84 2 -9 81 -6 81 2 0 5 8 5 18 0 21 -11 62
-10 80 1 6 5 12 4 12 -1 0 -10 86 -10 96 1 4 4 13 2 21 -4 9 -9 13 -8 13 0 0
8 6 9 18 3 21 -11 62 -10 80 1 6 5 12 4 12 -1 0 -10 86 -10 96 1 4 4 13 2 21
-4 9 -9 13 -8 13 0 0 8 6 9 18 3 21 -11 62 -10 80 1 6 5 12 4 12 -1 0 -10 86
-10 96 1 4 4 13 2 21 -4 9 -9 13 -8 13 0 0 8 6 9 18 3 21 -11 62 -10 80 1 6 5
12 4 12 -1 0 -10 86 -10 96 1 4 4 13 2 21 -4 9 -9 13 -8 13 0 0 8 6 9 18 3 21
-11 62 -10 80 1 6 5 12 4 12 -1 0 -10 86 -10 96 1 4 4 13 2 21 -4 9 -9 13 -8
13 0 0 8 6 9 18 3 21 -11 62 -10 80 1 6 5 12 4 12 -1 0 -10 86 -10 96 1 4 4
13 2 21 -4 9 -9 13 -8 13 0 0 8 6 9 18 3 21 -11 62 -10 80 1 6 5 12 4 12 0 0
-13 74 -11 82 1 5 7 8 7 8 1 0 -12 79 -13 98 -2 6 5 12 4 12 0 0 -10 140 -10
157 0 6 4 14 4 17 -1 6 -10 117 -9 134 1 6 5 12 4 12 0 0 -10 140 -10 157 0 6
4 14 4 17 -1 6 -10 117 -9 134 1 6 5 12 4 12 0 0 -10 140 -10 157 0 6 4 14 4
17 -1 6 -10 117 -9 134 1 6 5 12 4 12 0 0 -10 140 -10 157 0 6 4 14 4 17 -1 6
-10 77 -10 94 1 6 5 12 4 12 -1 0 -10 86 -10 96 1 4 4 13 2 21 -4 9 -9 13 -8
13 0 0 8 6 9 18 3 21 -11 62 -10 80 1 6 5 12 4 12 -1 0 -10 86 -10 96 1 4 4
13 2 21 -4 9 -9 13 -8 13 0 0 8 6 9 18 3 21 -11 62 -10 80 1 6 5 12 4 12 -1 0
-10 86 -10 96 1 4 4 13 2 21 -4 9 -9 13 -8 13 0 0 8 6 9 18 3 21 -11 62 -10
80 1 6 5 12 4 12 -1 0 -10 86 -10 96 1 4 4 13 2 21 -4 9 -9 13 -8 13 0 0 8 6
9 18 3 21 -11 62 -10 80 1 6 5 12 4 12 -1 0 -10 86 -10 96 1 4 4 13 2 21 -4 9
-9 13 -8 13 0 0 8 6 9 18 3 21 -11 62 -10 80 1 6 5 12 4 12 -1 0 -10 86 -10
96 1 4 4 13 2 21 -4 9 -9 13 -8 13 0 0 8 6 9 18 3 21 -11 62 -10 80 1 6 5 12
4 12 -1 0 -10 86 -10 96 1 4 4 13 2 21 -4 9 -9 13 -8 13 0 0 8 6 9 18 3 21
-11 62 -10 80 1 6 5 12 4 12 -1 0 -10 86 -10 96 1 4 4 13 2 21 -4 9 -9 13 -8
13 0 0 8 6 9 18 3 21 -11 62 -10 80 1 6 5 12 4 12 -1 0 -10 86 -10 96 1 4 4
13 2 21 -4 9 -9 13 -8 13 0 0 8 6 9 18 3 21 -11 62 -10 80 1 6 5 12 4 12 -1 0
-10 86 -10 96 1 4 4 13 2 21 -4 9 -9 13 -8 13 0 0 8 6 9 18 3 21 -11 62 -10
80 1 6 5 12 4 12 0 0 -13 74 -11 82 1 5 8 8 8 8 0 0 -12 38 -13 58 -1 6 5 12
4 12 -1 0 -10 86 -10 96 1 4 4 13 2 21 -4 9 -9 13 -8 13 0 0 8 6 9 18 3 21
-11 62 -10 80 1 6 5 12 4 12 -1 0 -10 86 -10 96 1 4 4 13 2 21 -4 9 -9 13 -8
13 0 0 8 6 9 18 3 21 -11 62 -10 80 1 6 5 12 4 12 -1 0 -10 86 -10 96 1 4 4
13 2 21 -4 9 -9 13 -8 13 0 0 8 6 9 18 3 21 -11 62 -10 80 1 6 5 12 4 12 0 0
-13 74 -11 82 1 5 7 8 7 8 1 0 -8 123 -13 148 -5 8 3 10 3 44 -4 21 -3 25 0
24 17 -1 12 3 25 9 29 6 5 6 8 -2 8 -8 0 -9 9 -3 29 4 15 4 34 0 41 -5 7 -4
24 1 37 6 16 5 22 -1 18 -7 -4 -7 3 0 19 5 14 6 26 1 26 -4 0 -7 12 -5 28 5
44 6 85 1 107 -2 11 -1 34 4 52 4 18 3 35 -2 38 -4 3 -4 17 1 31 7 17 7 23 0
19 -7 -4 -7 3 0 19 5 14 6 26 1 26 -4 0 -7 12 -5 28 5 44 6 85 1 107 -2 11 -1
34 4 52 4 18 3 35 -2 38 -4 3 -4 17 1 31 7 17 7 23 0 19 -7 -4 -7 3 0 19 5 14
6 26 1 26 -4 0 -7 12 -5 28 5 44 6 85 1 107 -2 11 -1 34 4 52 4 18 3 35 -2 38
-4 3 -4 17 1 31 7 17 7 23 0 19 -7 -4 -7 3 0 19 5 14 6 26 2 26 -8 0 -6 105 2
127 3 7 1 15 -4 18 -5 3 -6 15 0 29 4 12 4 29 0 36 -5 9 -4 20 2 27 8 10 7 13
-3 13 -11 0 -11 2 1 10 8 5 10 10 4 10 -6 0 -9 15 -7 38 8 76 8 102 2 102 -7
0 -2 57 6 71 4 5 2 9 -3 9 -5 0 -8 12 -6 28 5 43 6 75 1 97 -2 11 -1 34 4 52
4 18 3 35 -2 38 -4 3 -4 17 1 31 7 17 7 23 0 19 -7 -4 -7 3 0 19 5 14 6 26 1
26 -8 0 -6 52 4 78 2 6 1 12 -4 12 -9 0 -5 55 4 71 4 5 2 9 -3 9 -8 0 -7 93 2
117 3 7 1 15 -4 18 -5 3 -6 15 0 29 4 12 4 29 0 36 -5 9 -4 20 2 27 8 10 7 13
-3 13 -11 0 -11 2 1 10 8 5 10 10 4 10 -10 0 -10 61 -1 78 3 4 1 16 -3 27 -4
11 -4 34 1 52 4 18 3 35 -2 38 -4 3 -4 16 1 29 4 12 4 29 0 36 -5 9 -4 20 2
27 8 10 7 13 -3 13 -11 0 -11 2 1 10 8 5 10 10 4 10 -6 0 -9 15 -7 38 8 76 8
102 2 102 -7 0 -2 57 6 71 4 5 2 9 -3 9 -5 0 -8 12 -6 28 5 43 6 75 1 97 -2
11 -1 34 4 52 4 18 3 35 -2 38 -4 3 -4 17 1 31 7 17 7 23 0 19 -7 -4 -7 3 0
19 5 14 6 26 1 26 -8 0 -6 52 4 78 2 6 1 12 -4 12 -9 0 -5 55 4 71 4 5 2 9 -3
9 -8 0 -7 93 2 117 3 7 1 15 -4 18 -5 3 -6 15 0 29 4 12 4 29 0 36 -5 9 -4 20
2 27 8 10 7 13 -3 13 -11 0 -11 2 1 10 8 5 10 10 4 10 -10 0 -10 61 -1 78 3 4
1 16 -3 27 -4 11 -4 34 1 52 4 18 3 35 -2 38 -4 3 -4 16 1 29 4 12 4 29 0 36
-5 9 -4 20 2 27 8 10 7 13 -3 13 -11 0 -11 2 1 10 8 5 10 10 4 10 -6 0 -9 15
-7 38 8 76 8 102 2 102 -7 0 -2 57 6 71 4 5 2 9 -3 9 -5 0 -8 12 -6 28 5 43 6
75 1 97 -2 11 -1 34 4 52 4 18 3 35 -2 38 -4 3 -4 17 1 31 7 17 7 23 0 19 -7
-4 -7 3 0 19 5 14 6 26 1 26 -8 0 -6 52 4 78 2 6 1 12 -4 12 -9 0 -5 55 4 71
4 5 2 9 -3 9 -8 0 -7 93 2 117 3 7 1 15 -4 18 -5 3 -6 15 0 29 4 12 4 29 0 36
-5 9 -4 20 2 27 8 10 7 13 -3 13 -11 0 -11 2 1 10 8 5 10 10 4 10 -10 0 -10
61 -1 78 3 4 1 16 -3 27 -4 11 -4 34 1 52 4 18 3 35 -2 38 -4 3 -4 16 1 29 4
12 4 29 0 36 -5 9 -4 20 2 27 8 10 7 13 -3 13 -11 0 -11 2 1 10 8 5 10 10 4
10 -6 0 -9 15 -7 38 8 76 8 102 2 102 -7 0 -2 57 6 71 4 5 2 9 -3 9 -5 0 -8
12 -6 28 5 43 6 75 1 97 -2 11 -1 34 4 52 4 18 3 35 -2 38 -4 3 -4 17 1 31 7
17 7 23 0 19 -7 -4 -7 3 0 19 5 14 6 26 1 26 -8 0 -6 52 4 78 2 6 1 12 -4 12
-9 0 -5 55 4 71 4 5 2 9 -3 9 -8 0 -7 93 2 117 3 7 1 15 -4 18 -5 3 -6 15 0
29 4 12 4 29 0 36 -5 9 -4 20 2 27 8 10 7 13 -3 13 -11 0 -11 2 1 10 8 5 10
10 4 10 -5 0 -9 14 -7 33 5 46 5 129 0 152 -2 11 -1 34 4 52 4 18 3 35 -2 38
-4 3 -4 17 1 31 7 17 7 23 0 19 -7 -4 -7 3 0 19 5 14 6 26 1 26 -4 0 -7 12 -5
28 5 44 6 85 1 107 -2 11 -1 34 4 52 4 18 3 35 -2 38 -4 3 -4 17 1 31 7 17 7
23 0 19 -7 -4 -7 3 0 19 6 16 6 26 0 26 -5 0 -7 7 -4 15 4 9 0 15 -7 16 -33 2
-6627 4 -6640 1z"/>
<path d="M3486 3517 c3 -10 9 -15 12 -12 3 3 0 11 -7 18 -10 9 -11 8 -5 -6z"/>
</g>
</svg>
