<svg id="SvgjsSvg1006" width="288" height="288" xmlns="http://www.w3.org/2000/svg" version="1.1" xmlns:xlink="http://www.w3.org/1999/xlink" xmlns:svgjs="http://svgjs.com/svgjs"><defs id="SvgjsDefs1007"></defs><g id="SvgjsG1008" transform="matrix(1,0,0,1,0,0)"><svg xmlns="http://www.w3.org/2000/svg" xmlns:svgjs="http://svgjs.com/svgjs" xmlns:xlink="http://www.w3.org/1999/xlink" width="288" height="288"><svg xmlns="http://www.w3.org/2000/svg" width="288" height="288" baseProfile="tiny" version="1.2" viewBox="-110 -110 220 220"><circle r="100" fill="#ffffff" class="colorfff svgShape"></circle><circle cy="100" r="2.1" fill="#000000" class="color000 svgShape colore11d48"></circle><circle cy="100" r="2.1" fill="#000000" class="color000 svgShape colore11d48" transform="rotate(2.86)"></circle><circle cy="100" r="2.1" fill="#000000" class="color000 svgShape colore11d48" transform="rotate(5.71)"></circle><circle cy="100" r="2.1" fill="#000000" class="color000 svgShape colore11d48" transform="rotate(8.57)"></circle><circle cy="100" r="2.1" fill="#000000" class="color000 svgShape colore11d48" transform="rotate(11.43)"></circle><circle cy="100" r="2.1" fill="#000000" class="color000 svgShape colore11d48" transform="rotate(14.29)"></circle><circle cy="100" r="2.1" fill="#000000" class="color000 svgShape colore11d48" transform="rotate(17.14)"></circle><circle cy="100" r="2.1" fill="#000000" class="color000 svgShape colore11d48" transform="rotate(20)"></circle><circle cy="100" r="2.1" fill="#000000" class="color000 svgShape colore11d48" transform="rotate(22.86)"></circle><circle cy="100" r="2.1" fill="#000000" class="color000 svgShape colore11d48" transform="rotate(25.71)"></circle><circle cy="100" r="2.1" fill="#000000" class="color000 svgShape colore11d48" transform="rotate(28.57)"></circle><circle cy="100" r="2.1" fill="#000000" class="color000 svgShape colore11d48" transform="rotate(31.43)"></circle><circle cy="100" r="2.1" fill="#000000" class="color000 svgShape colore11d48" transform="rotate(34.29)"></circle><circle cy="100" r="2.1" fill="#000000" class="color000 svgShape colore11d48" transform="rotate(37.14)"></circle><circle cy="100" r="2.1" fill="#000000" class="color000 svgShape colore11d48" transform="rotate(40)"></circle><circle cy="100" r="2.1" fill="#000000" class="color000 svgShape colore11d48" transform="rotate(42.86)"></circle><circle cy="100" r="2.1" fill="#000000" class="color000 svgShape colore11d48" transform="rotate(45.71)"></circle><circle cy="100" r="2.1" fill="#000000" class="color000 svgShape colore11d48" transform="rotate(48.57)"></circle><circle cy="100" r="2.1" fill="#000000" class="color000 svgShape colore11d48" transform="rotate(51.43)"></circle><circle cy="100" r="2.1" fill="#000000" class="color000 svgShape colore11d48" transform="rotate(54.29)"></circle><circle cy="100" r="2.1" fill="#000000" class="color000 svgShape colore11d48" transform="rotate(57.14)"></circle><circle cy="100" r="2.1" fill="#000000" class="color000 svgShape colore11d48" transform="rotate(60)"></circle><circle cy="100" r="2.1" fill="#000000" class="color000 svgShape colore11d48" transform="rotate(62.86)"></circle><circle cy="100" r="2.1" fill="#000000" class="color000 svgShape colore11d48" transform="rotate(65.71)"></circle><circle cy="100" r="2.1" fill="#000000" class="color000 svgShape colore11d48" transform="rotate(68.57)"></circle><circle cy="100" r="2.1" fill="#000000" class="color000 svgShape colore11d48" transform="rotate(71.43)"></circle><circle cy="100" r="2.1" fill="#000000" class="color000 svgShape colore11d48" transform="rotate(74.29)"></circle><circle cy="100" r="2.1" fill="#000000" class="color000 svgShape colore11d48" transform="rotate(77.14)"></circle><circle cy="100" r="2.1" fill="#000000" class="color000 svgShape colore11d48" transform="rotate(80)"></circle><circle cy="100" r="2.1" fill="#000000" class="color000 svgShape colore11d48" transform="rotate(82.86)"></circle><circle cy="100" r="2.1" fill="#000000" class="color000 svgShape colore11d48" transform="rotate(85.71)"></circle><circle cy="100" r="2.1" fill="#000000" class="color000 svgShape colore11d48" transform="rotate(88.57)"></circle><circle cy="100" r="2.1" fill="#000000" class="color000 svgShape colore11d48" transform="rotate(91.43)"></circle><circle cy="100" r="2.1" fill="#000000" class="color000 svgShape colore11d48" transform="rotate(94.29)"></circle><circle cy="100" r="2.1" fill="#000000" class="color000 svgShape colore11d48" transform="rotate(97.14)"></circle><circle cy="100" r="2.1" fill="#000000" class="color000 svgShape colore11d48" transform="rotate(100)"></circle><circle cy="100" r="2.1" fill="#000000" class="color000 svgShape colore11d48" transform="rotate(102.86)"></circle><circle cy="100" r="2.1" fill="#000000" class="color000 svgShape colore11d48" transform="rotate(105.71)"></circle><circle cy="100" r="2.1" fill="#000000" class="color000 svgShape colore11d48" transform="rotate(108.57)"></circle><circle cy="100" r="2.1" fill="#000000" class="color000 svgShape colore11d48" transform="rotate(111.43)"></circle><circle cy="100" r="2.1" fill="#000000" class="color000 svgShape colore11d48" transform="rotate(114.29)"></circle><circle cy="100" r="2.1" fill="#000000" class="color000 svgShape colore11d48" transform="rotate(117.14)"></circle><circle cy="100" r="2.1" fill="#000000" class="color000 svgShape colore11d48" transform="rotate(120)"></circle><circle cy="100" r="2.1" fill="#000000" class="color000 svgShape colore11d48" transform="rotate(122.86)"></circle><circle cy="100" r="2.1" fill="#000000" class="color000 svgShape colore11d48" transform="rotate(125.71)"></circle><circle cy="100" r="2.1" fill="#000000" class="color000 svgShape colore11d48" transform="rotate(128.57)"></circle><circle cy="100" r="2.1" fill="#000000" class="color000 svgShape colore11d48" transform="rotate(131.43)"></circle><circle cy="100" r="2.1" fill="#000000" class="color000 svgShape colore11d48" transform="rotate(134.29)"></circle><circle cy="100" r="2.1" fill="#000000" class="color000 svgShape colore11d48" transform="rotate(137.14)"></circle><circle cy="100" r="2.1" fill="#000000" class="color000 svgShape colore11d48" transform="rotate(140)"></circle><circle cy="100" r="2.1" fill="#000000" class="color000 svgShape colore11d48" transform="rotate(142.86)"></circle><circle cy="100" r="2.1" fill="#000000" class="color000 svgShape colore11d48" transform="rotate(145.71)"></circle><circle cy="100" r="2.1" fill="#000000" class="color000 svgShape colore11d48" transform="rotate(148.57)"></circle><circle cy="100" r="2.1" fill="#000000" class="color000 svgShape colore11d48" transform="rotate(151.43)"></circle><circle cy="100" r="2.1" fill="#000000" class="color000 svgShape colore11d48" transform="rotate(154.29)"></circle><circle cy="100" r="2.1" fill="#000000" class="color000 svgShape colore11d48" transform="rotate(157.14)"></circle><circle cy="100" r="2.1" fill="#000000" class="color000 svgShape colore11d48" transform="rotate(160)"></circle><circle cy="100" r="2.1" fill="#000000" class="color000 svgShape colore11d48" transform="rotate(162.86)"></circle><circle cy="100" r="2.1" fill="#000000" class="color000 svgShape colore11d48" transform="rotate(165.71)"></circle><circle cy="100" r="2.1" fill="#000000" class="color000 svgShape colore11d48" transform="rotate(168.57)"></circle><circle cy="100" r="2.1" fill="#000000" class="color000 svgShape colore11d48" transform="rotate(171.43)"></circle><circle cy="100" r="2.1" fill="#000000" class="color000 svgShape colore11d48" transform="rotate(174.29)"></circle><circle cy="100" r="2.1" fill="#000000" class="color000 svgShape colore11d48" transform="rotate(177.14)"></circle><circle cy="100" r="2.1" fill="#000000" class="color000 svgShape colore11d48" transform="rotate(180)"></circle><circle cy="100" r="2.1" fill="#000000" class="color000 svgShape colore11d48" transform="rotate(182.86)"></circle><circle cy="100" r="2.1" fill="#000000" class="color000 svgShape colore11d48" transform="rotate(185.71)"></circle><circle cy="100" r="2.1" fill="#000000" class="color000 svgShape colore11d48" transform="rotate(188.57)"></circle><circle cy="100" r="2.1" fill="#000000" class="color000 svgShape colore11d48" transform="rotate(191.43)"></circle><circle cy="100" r="2.1" fill="#000000" class="color000 svgShape colore11d48" transform="rotate(194.29)"></circle><circle cy="100" r="2.1" fill="#000000" class="color000 svgShape colore11d48" transform="rotate(197.14)"></circle><circle cy="100" r="2.1" fill="#000000" class="color000 svgShape colore11d48" transform="rotate(200)"></circle><circle cy="100" r="2.1" fill="#000000" class="color000 svgShape colore11d48" transform="rotate(202.86)"></circle><circle cy="100" r="2.1" fill="#000000" class="color000 svgShape colore11d48" transform="rotate(205.71)"></circle><circle cy="100" r="2.1" fill="#000000" class="color000 svgShape colore11d48" transform="rotate(208.57)"></circle><circle cy="100" r="2.1" fill="#000000" class="color000 svgShape colore11d48" transform="rotate(211.43)"></circle><circle cy="100" r="2.1" fill="#000000" class="color000 svgShape colore11d48" transform="rotate(214.29)"></circle><circle cy="100" r="2.1" fill="#000000" class="color000 svgShape colore11d48" transform="rotate(217.14)"></circle><circle cy="100" r="2.1" fill="#000000" class="color000 svgShape colore11d48" transform="rotate(220)"></circle><circle cy="100" r="2.1" fill="#000000" class="color000 svgShape colore11d48" transform="rotate(222.86)"></circle><circle cy="100" r="2.1" fill="#000000" class="color000 svgShape colore11d48" transform="rotate(225.71)"></circle><circle cy="100" r="2.1" fill="#000000" class="color000 svgShape colore11d48" transform="rotate(228.57)"></circle><circle cy="100" r="2.1" fill="#000000" class="color000 svgShape colore11d48" transform="rotate(231.43)"></circle><circle cy="100" r="2.1" fill="#000000" class="color000 svgShape colore11d48" transform="rotate(234.29)"></circle><circle cy="100" r="2.1" fill="#000000" class="color000 svgShape colore11d48" transform="rotate(237.14)"></circle><circle cy="100" r="2.1" fill="#000000" class="color000 svgShape colore11d48" transform="rotate(240)"></circle><circle cy="100" r="2.1" fill="#000000" class="color000 svgShape colore11d48" transform="rotate(242.86)"></circle><circle cy="100" r="2.1" fill="#000000" class="color000 svgShape colore11d48" transform="rotate(245.71)"></circle><circle cy="100" r="2.1" fill="#000000" class="color000 svgShape colore11d48" transform="rotate(248.57)"></circle><circle cy="100" r="2.1" fill="#000000" class="color000 svgShape colore11d48" transform="rotate(251.43)"></circle><circle cy="100" r="2.1" fill="#000000" class="color000 svgShape colore11d48" transform="rotate(254.29)"></circle><circle cy="100" r="2.1" fill="#000000" class="color000 svgShape colore11d48" transform="rotate(257.14)"></circle><circle cy="100" r="2.1" fill="#000000" class="color000 svgShape colore11d48" transform="rotate(260)"></circle><circle cy="100" r="2.1" fill="#000000" class="color000 svgShape colore11d48" transform="rotate(262.86)"></circle><circle cy="100" r="2.1" fill="#000000" class="color000 svgShape colore11d48" transform="rotate(265.71)"></circle><circle cy="100" r="2.1" fill="#000000" class="color000 svgShape colore11d48" transform="rotate(268.57)"></circle><circle cy="100" r="2.1" fill="#000000" class="color000 svgShape colore11d48" transform="rotate(271.43)"></circle><circle cy="100" r="2.1" fill="#000000" class="color000 svgShape colore11d48" transform="rotate(274.29)"></circle><circle cy="100" r="2.1" fill="#000000" class="color000 svgShape colore11d48" transform="rotate(277.14)"></circle><circle cy="100" r="2.1" fill="#000000" class="color000 svgShape colore11d48" transform="rotate(280)"></circle><circle cy="100" r="2.1" fill="#000000" class="color000 svgShape colore11d48" transform="rotate(282.86)"></circle><circle cy="100" r="2.1" fill="#000000" class="color000 svgShape colore11d48" transform="rotate(285.71)"></circle><circle cy="100" r="2.1" fill="#000000" class="color000 svgShape colore11d48" transform="rotate(288.57)"></circle><circle cy="100" r="2.1" fill="#000000" class="color000 svgShape colore11d48" transform="rotate(291.43)"></circle><circle cy="100" r="2.1" fill="#000000" class="color000 svgShape colore11d48" transform="rotate(294.29)"></circle><circle cy="100" r="2.1" fill="#000000" class="color000 svgShape colore11d48" transform="rotate(297.14)"></circle><circle cy="100" r="2.1" fill="#000000" class="color000 svgShape colore11d48" transform="rotate(300)"></circle><circle cy="100" r="2.1" fill="#000000" class="color000 svgShape colore11d48" transform="rotate(302.86)"></circle><circle cy="100" r="2.1" fill="#000000" class="color000 svgShape colore11d48" transform="rotate(305.71)"></circle><circle cy="100" r="2.1" fill="#000000" class="color000 svgShape colore11d48" transform="rotate(308.57)"></circle><circle cy="100" r="2.1" fill="#000000" class="color000 svgShape colore11d48" transform="rotate(311.43)"></circle><circle cy="100" r="2.1" fill="#000000" class="color000 svgShape colore11d48" transform="rotate(314.29)"></circle><circle cy="100" r="2.1" fill="#000000" class="color000 svgShape colore11d48" transform="rotate(317.14)"></circle><circle cy="100" r="2.1" fill="#000000" class="color000 svgShape colore11d48" transform="rotate(320)"></circle><circle cy="100" r="2.1" fill="#000000" class="color000 svgShape colore11d48" transform="rotate(322.86)"></circle><circle cy="100" r="2.1" fill="#000000" class="color000 svgShape colore11d48" transform="rotate(325.71)"></circle><circle cy="100" r="2.1" fill="#000000" class="color000 svgShape colore11d48" transform="rotate(328.57)"></circle><circle cy="100" r="2.1" fill="#000000" class="color000 svgShape colore11d48" transform="rotate(331.43)"></circle><circle cy="100" r="2.1" fill="#000000" class="color000 svgShape colore11d48" transform="rotate(334.29)"></circle><circle cy="100" r="2.1" fill="#000000" class="color000 svgShape colore11d48" transform="rotate(337.14)"></circle><circle cy="100" r="2.1" fill="#000000" class="color000 svgShape colore11d48" transform="rotate(340)"></circle><circle cy="100" r="2.1" fill="#000000" class="color000 svgShape colore11d48" transform="rotate(342.86)"></circle><circle cy="100" r="2.1" fill="#000000" class="color000 svgShape colore11d48" transform="rotate(345.71)"></circle><circle cy="100" r="2.1" fill="#000000" class="color000 svgShape colore11d48" transform="rotate(348.57)"></circle><circle cy="100" r="2.1" fill="#000000" class="color000 svgShape colore11d48" transform="rotate(351.43)"></circle><circle cy="100" r="2.1" fill="#000000" class="color000 svgShape colore11d48" transform="rotate(354.29)"></circle><circle cy="100" r="2.1" fill="#000000" class="color000 svgShape colore11d48" transform="rotate(357.14)"></circle><path fill="#000000" stroke="#000000" d="M-15-63L-32-62.5M-13-61L-50-50M-11-59L-64-23M-10-56L-70-1.5M-10-51.5L-67 13M-8-49L-62.5 30M-7-45L-46 55M-3.5-49L-35 62M-1-50.5L-23 60M-9 55L-11 70.5M13.5-61L32-59.5M12-59L54-42M12-56L66-23M12-53L69-6M10-50L68 14M14-40L65 27M24-20L58 39M6-50L47 53M1.5-50.5L31.5 58.5M15.5 55L16 67.5M2 55L2.5 71" class="color000 svgShape colorStroke000 svgStroke colore11d48 colorStrokee11d48"></path><path fill="#ffffff" stroke="#000000" d=" M -52 28
 c -3 3 -5.5 4 -5.5 9
 s 5.5 5 6.5 5
 s 5 -1 5 4.5
 s 8 7 8 12.5
 c 0.5 3 1 -5 -1 -7
 c 1 -1 0.5 -1 1.5 -3
 c 1 1 8 7 9 7
 c 3 0 1.5 -6.5 -2 -3
 C -32 51.5 -32 48.5 -34 48.5
 c -2 0 -2 -2 -2 -4
 s 0 -8.5 -14 -8.5
 c -3 0 -3 0 -3 -2
 s 1 -4 1 -5
 z
 " class="colorfff svgShape colorStroke000 svgStroke colorStrokee11d48"></path><path fill="#ffffff" stroke="#000000" d="
 M -47.5 -45.5
 h 41.5
 c 3 0 5 4 6 5
 c 1 -1 3 -5 6 -5
 h 41.5
 v 89
 h -43.5
 c 0 2 -8 2 -8 0
 h -43.5
 z
 " class="colorfff svgShape colorStroke000 svgStroke colorStrokee11d48"></path><path fill="none" stroke="#000000" d="
 M -35.5 -45.5
 v 82
 h 29.5
 c 3 0 5 4 6 5
 c 1 -1 3 -5 6 -5
 h 29.5
 v -82
 " class="colorStroke000 svgStroke colorStrokee11d48"></path><path fill="none" stroke="#000000" d="
 M -38.5 -45.5
 v 83.75
 h 32.5
 c 3 0 5 4 6 5
 c 1 -1 3 -5 6 -5
 h 32.5
 v -83.75
 " class="colorStroke000 svgStroke colorStrokee11d48"></path><path fill="none" stroke="#000000" d="
 M -41.5 -45.5
 v 85.5
 h 35.5
 c 3 0 5 2.5 6 3.5
 c 1 -1 3 -3.5 6 -3.5
 h 35.5
 v -85.5
 " class="colorStroke000 svgStroke colorStrokee11d48"></path><path fill="none" stroke="#000000" d="
 M -44.5 -45.5
 v 87.25
 h 38.5
 c 3 0 5 0.75 6 1.75
 c 1 -1 3 -1.75 6 -1.75
 h 38.5
 v -87.25
 " class="colorStroke000 svgStroke colorStrokee11d48"></path><path fill="#000000" stroke="#000000" d="
 M 0 -40.5
 v 82
 " class="color000 svgShape colorStroke000 svgStroke colore11d48 colorStrokee11d48"></path><path fill="#ffffff" stroke="#000000" d="
 M -4 43.5
 c 0 -6 8 -6 8 0
 c 0 2 -8 2 -8 0
 z
 " class="colorfff svgShape colorStroke000 svgStroke colorStrokee11d48"></path><path fill="none" stroke="#000000" d="
 M6 -41.35 h3 m3 0 h2 m1 0 h3 m3 0 h7 m1 0 h4 m-27 3.2 h1 m1
 0 h13 m3 0 h9 m-27 3.2 h4 m1 0 h3 m3 0 h7 m1 0 h4 m1 0 h3
 m-27 3.2 h27 m-27 3.2 h1 m1 0 h9 m1 0 h5 m1 0 h9 m-27 3.2
 h5 m1 0 h7 m1 0 h7 m3 0 h3 m-27 3.2 h1 m3 0 h5 m1 0 h3 m3 0
 h7 m1 0 h3 m-27 3.2 h4 m3 0 h6 m1 0 h4 m3 0 h6 m-27 3.2 h1
 m1 0 h9 m1 0 h5 m1 0 h9 m-27 3.2 h2 m1 0 h3 m3 0 h1 m1 0 h3
 m3 0 h1 m1 0 h3 m3 0 h2 m-27 3.2 h2 m1 0 h5 m1 0 h3 m3 0 h6
 m1 0 h5 m-27 3.2 h10 m1 0 h16 m-27 3.2 h2 m1 0 h12 m3 0 h9
 m-27 3.2 h4 m1 0 h5 m3 0 h7 m1 0 h6 m-27 3.2 h27 m-27 3.2
 h9 m3 0 h15 m-27 3.2 h3 m1 0 h2 m1 0 h6 m1 0 h4 m1 0 h8
 m-27 3.2 h10 m1 0 h16 m-27 3.2 h27 m-27 3.2 h9 m3 0 h15
 m-27 3.2 h1.5 m1 0 h19.2 m3 0 h0.6 m1 0 h0.7 m-27 3.2 h0.5
 m1 0 h25.5 m-27 3.2 h1.2 m1 0 h24.8 m-27 3.2 h27 m-27 3.2
 m -39 -76.8 h3 m3 0 h4 m1 0 h5 m1 0 h5 m1 0 h4 m-27 3.2 h18
 m1 0 h8 m-27 3.2 h15 m1 0 h5 m3 0 h3 m-27 3.2 h18 m3 0 h6
 m-27 3.2 h27 m-27.1 3.2 h3 m3 0 h4 m1 0 h4 m3 0 h7 m1 0 h1
 m-27 3.2 h5 m1 0 h15 m3 0 h3 m-27 3.2 h4 m1 0 h3 m3 0 h7 m1
 0 h5 m1 0 h2 m-27 3.2 h2 m1 0 h3 m3 0 h1.5 m1 0 h3 m3 0 h1
 m1 0 h4 m3 0 h0.5 m-27 3.2 h27 m-27 3.2 h6 m3 0 h8 m3 0 h5
 m1 0 h1 m-27 3.2 h2 m3 0 h7 m3 0 h6 m3 0 h3 m-27 3.2 h27
 m-27 3.2 h5 m1 0 h9 m1 0 h8 m1 0 h2 m-27 3.2 h11 m3 0 h13
 m-27 3.2 h10 m1 0 h8 m3 0 h5 m-27 3.2 h5 m3 0 h17 m1 0 h1
 m-27 3.2 h2 m1 0 h5 m1 0 h3 m3 0 h8 m1 0 h3 m-27 3.2 h3 m3
 0 h8 m3 0 h5 m3 0 h2 m-27 3.2 h7 m1 0 h5 m3 0 h7 m1 0 h3
 m-27 3.2 h9 m3 0 h5 m1 0 h7 m1 0 h1 m-27 3.2 h9.5 m1 0 h1
 m3 0 h1 m1 0 h1 m3 0 h1 m1 0 h1 m3 0 h0.5 m-27 3.2 h27 m-27
 3.2 h27 m-27 3.2 m 26.5 -76.8 h0.5 c3 0 5 4 6 5 1 -1 3 -5 6
 -5 h0.5 m-13 3.2 h0.5 c3 0 5 4 6 5 1 -1 3 -5 6 -5 h0.5 m-13
 3.2 h0.5 c3 0 5 4 6 5 1 -1 3 -5 6 -5 h0.5 m-13 3.2 h0.5 c3
 0 5 4 6 5 1 -1 3 -5 6 -5 h0.5 m-13 3.2 h0.5 c3 0 5 4 6 5 1
 -1 3 -5 6 -5 h0.5 m-13 3.2 h0.5 c3 0 5 4 6 5 1 -1 3 -5 6 -5
 h0.5 m-13 3.2 h0.5 c3 0 5 4 6 5 1 -1 3 -5 6 -5 h0.5 m-13
 3.2 h0.5 c3 0 5 4 6 5 1 -1 3 -5 6 -5 h0.5 m-13 3.2 h0.5 c3
 0 5 4 6 5 1 -1 3 -5 6 -5 h0.5 m-13 3.2 h0.5 c3 0 5 4 6 5 1
 -1 3 -5 6 -5 h0.5 m-13 3.2 h0.5 c3 0 5 4 6 5 1 -1 3 -5 6 -5
 h0.5 m-13 3.2 h0.5 c3 0 5 4 6 5 1 -1 3 -5 6 -5 h0.5 m-13
 3.2 h0.5 c3 0 5 4 6 5 1 -1 3 -5 6 -5 h0.5 m-13 3.2 h0.5 c3
 0 5 4 6 5 1 -1 3 -5 6 -5 h0.5 m-13 3.2 h0.5 c3 0 5 4 6 5 1
 -1 3 -5 6 -5 h0.5 m-13 3.2 h0.5 c3 0 5 4 6 5 1 -1 3 -5 6 -5
 h0.5 m-13 3.2 h0.5 c3 0 5 4 6 5 1 -1 3 -5 6 -5 h0.5 m-13
 3.2 h0.5 c3 0 5 4 6 5 1 -1 3 -5 6 -5 h0.5 m-13 3.2 h0.5 c3
 0 5 4 6 5 1 -1 3 -5 6 -5 h0.5 m-13 3.2 h0.5 c3 0 5 4 6 5 1
 -1 3 -5 6 -5 h0.5 m-13 3.2 h0.5 c3 0 5 4 6 5 1 -1 3 -5 6 -5
 h0.5 m-13 3.2 h0.5 c3 0 5 4 6 5 1 -1 3 -5 6 -5 h0.5 m-13
 3.2 h0.5 c3 0 5 4 6 5 1 -1 3 -5 6 -5 h0.5 m-13 3.2 h0.5 c3
 0 5 4 6 5 1 -1 3 -5 6 -5 h0.5 m-13 3.2
 " class="colorStroke000 svgStroke colorStrokee11d48"></path><path fill="#ffffff" stroke="#ffffff" stroke-width="4" d="
 M -32.5 -38.15
 v 9.6
 h 9.6
 v -9.6
 z
 " class="colorfff svgShape colorStrokefff svgStroke"></path><path fill="none" stroke="#000000" d="
 M -32.5 -38.15
 v 9.6
 h 9.6
 v -9.6
 z
 m 1.5 8.5
 l 3.3 -6.6
 l 3.3 6.6
 m -4.95 -3.3
 h 3.3
 " class="colorStroke000 svgStroke colorStrokee11d48"></path><path fill="#ffffff" stroke="#000000" d="
 M 21 45
 c -7 -5 -6 -12 1 -13
 l -7 -2
 c -15 6 -9 14.5 4 15
 z
 " class="colorfff svgShape colorStroke000 svgStroke colorStrokee11d48"></path><path fill="#ffffff" stroke="#000000" d="M-37 19c5 0 7 3 10 6s3.5 2.5 7 5 4.5 6 9 12 13 7 15 7 8 .5 10-1 2-4.5 5.5-4.5 4.5 5 4.5 7-2 14-22 13.5-25-13-28.5-18-2-16-27-16c0-2 .5-3 .5-5s0-4 7-5S-42 19-37 19zM9.5 28c0 2 1 3 1 4s3 .5 4 1.5 20 6 30 6 13-4 17.5-14C63.1 23 62 20 59 16.5s-5.5-5.5-8-5.5-9 2-10 2.5-10 3-11-3.5 7.5-7 10-5 5.5 3 8.5 3 6-2.5 8-4.5 6.5-3 6.5-6.5-2-4-2-7c-1-2 1 5.5-3 6.5s-3.5 2-3.5 2c-.5-3 2-7.5-4.5-9.5 4-5-5-5-3 0l2.5 3c.5 1 1 1 1.5 4.5-1.5 1-1.5 1.5-2.5 3.5s-7-.5-10 1-3-3 .5-3.5 2.5 0 3.5-1.5-3 0-4-1-3 .5-4 1-7.5 5-7 12 1.5 13.5 10 13S49 12 54 17c1.5 1.5 0 9.5-4 9.5-25 0-20-5-35-5-6 0-5.5 3-5.5 5z" class="colorfff svgShape colorStroke000 svgStroke colorStrokee11d48"></path><path fill="#000000" stroke="#000000" d="
 M 59 16.5
 L 54 17
 " class="color000 svgShape colorStroke000 svgStroke colore11d48 colorStrokee11d48"></path><path fill="#ffffff" stroke="#000000" d="M-35.14 68.46c4.31-13.21 4.89-11.29 7.83-7.65 1.52 1.89 4.51-.38 4.42 1.67-.14 3.2-2.86 4.64-3.64 13.55-4.87 2.56-8.01.52-8.62-7.57zM33.82 77.47c-22.43 5.28-10.21-.22-10.89-4.35-2.43-14.83-.88-10.35 4.48-12.64 2.8-1.19 5.88-2.37 6.56-.48 5.58 21.88 5.97 16.15-.16 17.47z" class="colorfff svgShape colorStroke000 svgStroke colorStrokee11d48"></path><path fill="#ffffff" stroke="#000000" d="M-34.24 81.01c-25.29-5.73 4.13-11.49 3.34-14.84-2.6-11.03 1.35-8.99 3.59-6.41 1.59 1.84 4.51.68 4.42 2.73-.14 3.2-5.24.63-4.7 4.35 1.08 12.63 6.27 18.25-6.65 14.17zM35.06 80.48c-22.43 5.28-4.47-9.65-10.1-13.96-6.35-4.86-2.29-5.19 2.7-6.41 2.95-.72 5.63-2 6.31-.11.92 2.55-2.05 1.49-3.48 5.32-1.02 2.72 29.49 7.13 4.56 15.16z" class="colorfff svgShape colorStroke000 svgStroke colorStrokee11d48"></path><path fill="#ffffff" stroke="#000000" d="
 M -33.14 81.84 c 0.03 -3.32 5.67 -9.86 5.20 -10.75 -2.94
 -5.62 1.75 -3.55 7.17 -2.67 3.46 0.56 15.30 3.95 20.84 3.53
 1.40 -0.11 5.09 0.62 9.69 -1.69 8.33 -4.16 8.98 -0.32 13.60
 -2.78 5.21 -2.78 5.02 0.51 5.15 3.10 0.17 3.66 -0.56 0.16
 0.61 4.67 0.63 2.42 4.50 3.19 3.88 7.37 -0.64 4.39 -4.15
 5.10 -14.89 7.29 -9.62 1.96 -6.09 2.70 -17.38 2.76 -8.81
 0.05 -6.00 -2.53 -23.36 -2.74 -7.05 -0.08 -10.56 -2.80
 -10.50 -8.08 z
 " class="colorfff svgShape colorStroke000 svgStroke colorStrokee11d48"></path><path fill="#ffffff" stroke="#000000" d="
 M 70.44 -55.07 c 1.57 4.27 4.57 4.97 7.17 8.62 2.61 3.65
 5.64 12.14 6.85 15.99 2.58 8.22 5.97 12.80 5.96 20.64 -0.02
 9.25 0.47 20.47 -0.66 23.78 -1.13 3.31 -4.17 11.47 -5.63
 20.85 -1.36 8.73 -8.95 15.95 -10.02 17.18 -1.07 1.23 -4.20
 9.73 -12.41 16.15 -3.62 2.83 -8.80 6.32 -13.23 9.54 -3.99
 2.90 -5.88 5.68 -8.22 5.35 -2.34 -0.33 -3.94 -3.18 -4.40
 -6.78 -0.29 -2.25 -0.73 -3.91 -3.82 -7.58 -2.67 -3.17 -3.39
 -4.15 2.39 -4.82 4.14 -0.48 9.90 -8.72 13.28 -9.78 3.38
 -1.06 10.22 -11.40 16.58 -25.10 4.62 -9.98 7.28 -23.95 4.66
 -42.19 -2.47 -17.20 -5.83 -18.57 -11.29 -26.84 -4.41 -6.68
 -7.52 -11.62 -13.50 -14.80 -0.94 -0.50 -3.62 -1.14 -6.98
 -4.27 -1.94 -1.81 -4.82 -2.95 -7.35 -4.41 -2.53 -1.46
 -19.85 -7.84 -29.32 -8.11 -7.81 -0.22 -19.21 1.43 -37.15
 11.16 -6.11 3.32 -11.99 8.28 -19.60 16.88 -3.14 3.55 -4.09
 7.93 -5.88 11.74 -0.99 2.12 -2.86 3.82 -4.05 5.69 -4.52
 7.12 -5.43 20.02 -5.44 25.85 -0.03 9.80 3.61 16.83 3.71
 21.52 0.16 7.17 4.23 12.06 9.27 20.65 2.99 5.10 9.20 10.91
 12.73 13.27 3.73 2.48 5.55 5.63 10.61 8.05 8.41 4.02 1.87
 5.24 0.49 9.46 -0.76 2.33 -1.57 13.24 -8.02 9.13 -3.14
 -2.00 -8.42 -4.63 -13.35 -8.69 -1.49 -1.23 -9.60 -6.39
 -12.87 -13.36 -0.99 -2.11 -5.77 -7.14 -9.95 -13.68 -3.75
 -5.86 -5.74 -12.05 -8.85 -19.54 -3.15 -7.60 -2.93 -18.99
 -3.66 -26.78 -1.63 -17.56 4.62 -23.34 4.62 -24.78 0.00
 -5.00 4.95 -17.01 6.62 -19.25 1.67 -2.25 2.62 -4.85 7.52
 -11.86 1.12 -1.60 10.72 -10.05 15.24 -14.36 7.21 -6.87
 29.22 -16.96 33.52 -17.02 6.79 -0.10 11.18 -3.15 21.49
 -3.72 6.68 -0.37 22.30 4.02 29.61 5.51 13.30 2.71 12.02
 5.79 23.95 12.28 11.94 6.48 16.91 11.76 19.38 18.46 z
 " class="colorfff svgShape colorStroke000 svgStroke colorStrokee11d48"></path><g fill="#000000" class="color000 svgShape colore11d48" transform="matrix(15 0 0 15 0 -62)"><polygon fill="#ffffff" stroke="#000000" stroke-width=".05" points="0 -1 .294 -.405 .951 -.309 .476 .155 .588 .809 0 .5 -.588 .809 -.476 .155 -.951 -.309 -.294 -.405" class="colorfff svgShape colorStroke000 svgStroke colorStrokee11d48"></polygon><polygon points="0 0 0 -1 .294 -.405" class="color000 svgShape" fill="#000000"></polygon><polygon points="0 0 .951 -.309 .713 -.077" class="color000 svgShape" fill="#000000"></polygon><polygon points="0 0 .476 .155 .588 .809" class="color000 svgShape" fill="#000000"></polygon><polygon points="0 0 0 .5 -.588 .809" class="color000 svgShape" fill="#000000"></polygon><polygon points="0 0 -.951 -.309 -.294 -.405" class="color000 svgShape" fill="#000000"></polygon></g><circle cy="81" r="2.1" fill="#000000" class="color000 svgShape colore11d48" transform="rotate(18)"></circle><circle cy="81" r="2.1" fill="#000000" class="color000 svgShape colore11d48" transform="rotate(-18)"></circle><circle cy="81" r="2.1" fill="#000000" class="color000 svgShape colore11d48" transform="rotate(37.5)"></circle><circle cy="81" r="2.1" fill="#000000" class="color000 svgShape colore11d48" transform="rotate(-37.5)"></circle><circle cy="81" r="2.1" fill="#000000" class="color000 svgShape colore11d48" transform="rotate(82.5)"></circle><circle cy="81" r="2.1" fill="#000000" class="color000 svgShape colore11d48" transform="rotate(-145)"></circle><circle cy="81" r="2.1" fill="#000000" class="color000 svgShape colore11d48" transform="rotate(-176.5)"></circle><polygon fill="#000000" points="-1.3 5.5 -1.8 5.8 -1.8 6 1.8 6 1.8 5.8 1.3 5.5 1.3 -3.4 5 -3.4 5.3 -2.9 5.5 -2.9 5.5 -6 -5.5 -6 -5.5 -2.9 -5.3 -2.9 -5 -3.4 -1.3 -3.4" class="color000 svgShape colore11d48" transform="rotate(-129.8 -18.972 40.5)"></polygon><g fill="#000000" class="color000 svgShape colore11d48" transform="rotate(-119.3 -23.714 40.5)"><polygon points="-5.5 5.5 -6 5.8 -6 6 -2.4 6 -2.4 5.8 -2.9 5.5 -2.9 -5.5 -2.4 -5.8 -2.4 -6 -6 -6 -6 -5.8 -5.5 -5.5" class="color000 svgShape" fill="#000000"></polygon><polygon points="5.5 5.5 6 5.8 6 6 2.4 6 2.4 5.8 2.9 5.5 2.9 -5.5 2.4 -5.8 2.4 -6 6 -6 6 -5.8 5.5 -5.5" class="color000 svgShape" fill="#000000"></polygon><polygon points="-5 -1.3 -5 1.3 5 1.3 5 -1.3" class="color000 svgShape" fill="#000000"></polygon></g><polygon fill="#000000" points="-4.5 5.5 -5 5.8 -5 6 4.5 6 4.5 2.9 4.3 2.9 4 3.4 -1.9 3.4 -1.9 1.3 2.5 1.3 2.5 -1.3 -1.9 -1.3 -1.9 -3.4 4 -3.4 4.3 -2.9 4.5 -2.9 4.5 -6 -5 -6 -5 -5.8 -4.5 -5.5" class="color000 svgShape colore11d48" transform="rotate(-108.2 -29.317 40.5)"></polygon><g fill="#000000" class="color000 svgShape colore11d48" transform="rotate(-87.3 -42.455 40.5)"><path fill="none" stroke="#000000" stroke-width="2.6" d="
 M-4.2 -6
 V0
 C-4.2 6.3 4.2 6.3 4.2 0
 V-6
 " class="colorStroke000 svgStroke colorStrokee11d48"></path><polygon points="-5.5 -5.5 -6 -5.8 -6 -6 -2.4 -6 -2.4 -5.8 -2.9 -5.5" class="color000 svgShape" fill="#000000"></polygon><polygon points="5.5 -5.5 6 -5.8 6 -6 2.4 -6 2.4 -5.8 2.9 -5.5" class="color000 svgShape" fill="#000000"></polygon></g><g fill="#000000" class="color000 svgShape colore11d48" transform="rotate(-76.5 -51.374 40.5)"><polygon points="-5.5 5.5 -6 5.8 -6 6 -2.9 6 -2.9 -6 -6 -6 -6 -5.8 -5.5 -5.5" class="color000 svgShape" fill="#000000"></polygon><polygon points="5.5 5.5 6 5.8 6 6 2.9 6 2.9 -6 6 -6 6 -5.8 5.5 -5.5" class="color000 svgShape" fill="#000000"></polygon><polygon points="-5.5 -6 2.9 6 5.5 6 -2.9 -6" class="color000 svgShape" fill="#000000"></polygon></g><polygon fill="#000000" points="-1.3 5.5 -1.8 5.8 -1.8 6 1.8 6 1.8 5.8 1.3 5.5 1.3 -5.5 1.8 -5.8 1.8 -6 -1.8 -6 -1.8 -5.8 -1.3 -5.5" class="color000 svgShape colore11d48" transform="rotate(-68.2 -59.818 40.5)"></polygon><polygon fill="#000000" points="-7 -6 -1.3 6 1.3 6 7 -6 4.4 -6 -1.3 6 1.3 6 -4.4 -6" class="color000 svgShape colore11d48" transform="rotate(-60.6 -69.307 40.5)"></polygon><polygon fill="#000000" points="-4.5 5.5 -5 5.8 -5 6 4.5 6 4.5 2.9 4.3 2.9 4 3.4 -1.9 3.4 -1.9 1.3 2.5 1.3 2.5 -1.3 -1.9 -1.3 -1.9 -3.4 4 -3.4 4.3 -2.9 4.5 -2.9 4.5 -6 -5 -6 -5 -5.8 -4.5 -5.5" class="color000 svgShape colore11d48" transform="rotate(-50 -86.853 40.5)"></polygon><g fill="#000000" class="color000 svgShape colore11d48" transform="rotate(-40 -111.273 40.5)"><path fill="none" stroke="#000000" stroke-width="2.6" d="
 M-4.2 6
 V-4.7
 H0
 C5.5 -4.7 5.5 0 0 0
 H-4.2
 M-0.5 0
 L 3.7 4.7
 " class="colorStroke000 svgStroke colorStrokee11d48"></path><circle cx="3.7" cy="4.7" r="1.3" class="color000 svgShape" fill="#000000"></circle><polygon points="-5.5 5.5 -6 5.8 -6 6 -2.4 6 -2.4 5.8 -2.9 5.5" class="color000 svgShape" fill="#000000"></polygon></g><g fill="#000000" class="color000 svgShape colore11d48" transform="rotate(-30.2 -150.1 40.5)"><path fill="none" stroke="#000000" stroke-width="2.6" d="
 M-3.7 3.3
 C-3.7 3.3 -5 4.7 0 4.7
 C5 4.7 5 0 0 0
 C-5 0 -5 -4.7 0 -4.7
 C5 -4.7 3.7 -3.3 3.7 -3.3
 " class="colorStroke000 svgStroke colorStrokee11d48"></path><circle cx="-3.7" cy="3.3" r="1.3" class="color000 svgShape" fill="#000000"></circle><circle cx="3.7" cy="-3.3" r="1.3" class="color000 svgShape" fill="#000000"></circle></g><polygon fill="#000000" points="-1.3 5.5 -1.8 5.8 -1.8 6 1.8 6 1.8 5.8 1.3 5.5 1.3 -5.5 1.8 -5.8 1.8 -6 -1.8 -6 -1.8 -5.8 -1.3 -5.5" class="color000 svgShape colore11d48" transform="rotate(-23 -199.064 40.5)"></polygon><polygon fill="#000000" points="-1.3 5.5 -1.8 5.8 -1.8 6 1.8 6 1.8 5.8 1.3 5.5 1.3 -3.4 5 -3.4 5.3 -2.9 5.5 -2.9 5.5 -6 -5.5 -6 -5.5 -2.9 -5.3 -2.9 -5 -3.4 -1.3 -3.4" class="color000 svgShape colore11d48" transform="rotate(-15.7 -293.75 40.5)"></polygon><g fill="#000000" class="color000 svgShape colore11d48" transform="rotate(-6 -772.786 40.5)"><polygon points="-6 -6 -6 -5.8 -5 -5.2 -5.5 -6 -1.3 1.5 1.3 1.5 -2.9 -6 -2.9 -5.5 -2.4 -5.8 -2.4 -6" class="color000 svgShape" fill="#000000"></polygon><polygon points="6 -6 6 -5.8 5 -5.2 5.5 -6 1.3 1.5 -1.3 1.5 2.9 -6 2.9 -5.5 2.4 -5.8 2.4 -6" class="color000 svgShape" fill="#000000"></polygon><polygon points="-1.3 1.4 -1.3 5.5 -1.8 5.8 -1.8 6 1.8 6 1.8 5.8 1.3 5.5 1.3 1.4" class="color000 svgShape" fill="#000000"></polygon></g><circle r="4.7" fill="none" stroke="#000000" stroke-width="2.6" class="colorStroke000 svgStroke colorStrokee11d48" transform="rotate(14.4 320.59 40.5)"></circle><polygon fill="#000000" points="-4.5 5.5 -5 5.8 -5 6 -1.4 6 -1.4 5.8 -1.9 5.5 -1.9 1.8 3.5 1.8 3.5 -.8 -1.9 -.8 -1.9 -3.4 4 -3.4 4.3 -2.9 4.5 -2.9 4.5 -6 -5 -6 -5 -5.8 -4.5 -5.5" class="color000 svgShape colore11d48" transform="rotate(25.2 181.187 40.5)"></polygon><g fill="#000000" class="color000 svgShape colore11d48" transform="rotate(45.4 96.818 40.5)"><circle r="4.7" fill="none" stroke="#000000" stroke-width="2.6" class="colorStroke000 svgStroke colorStrokee11d48"></circle><rect width="6.5" height="4" y="-2" fill="#ffffff" class="colorfff svgShape"></rect></g><g fill="#000000" class="color000 svgShape colore11d48" transform="rotate(55.7 76.653 40.5)"><polygon points="-6 6 -5.5 5.2 -6.5 5.8 -6.5 6 -2.9 6 -2.9 5.8 -3.9 5.2 -3.4 6 -2.5 2.7 .1 2.7 .1 .1 -1.433 .1 .6 -6 -2.5 -6 -2.5 -5.8 -1.5 -5.2 -2 -6" class="color000 svgShape" fill="#000000"></polygon><polygon points="6 6 5.5 5.2 6.5 5.8 6.5 6 2.9 6 2.9 5.8 3.9 5.2 3.4 6 2.5 2.7 -.1 2.7 -.1 .1 1.433 .1 -.6 -6 2.5 -6 2.5 -5.8 1.5 -5.2 2 -6" class="color000 svgShape" fill="#000000"></polygon></g><polygon fill="#000000" points="-5 5.5 -5.5 5.8 -5.5 6 5 6 5 2.9 4.8 2.9 4.5 3.4 -2.4 3.4 -2.4 -6 -5.5 -6 -5.5 -5.8 -5 -5.5" class="color000 svgShape colore11d48" transform="rotate(66.8 61.421 40.5)"></polygon><polygon fill="#000000" points="-1.3 5.5 -1.8 5.8 -1.8 6 1.8 6 1.8 5.8 1.3 5.5 1.3 -5.5 1.8 -5.8 1.8 -6 -1.8 -6 -1.8 -5.8 -1.3 -5.5" class="color000 svgShape colore11d48" transform="rotate(73.7 54.04 40.5)"></polygon><polygon fill="#000000" points="-4.5 5.5 -5 5.8 -5 6 -1.4 6 -1.4 5.8 -1.9 5.5 -1.9 1.8 3.5 1.8 3.5 -.8 -1.9 -.8 -1.9 -3.4 4 -3.4 4.3 -2.9 4.5 -2.9 4.5 -6 -5 -6 -5 -5.8 -4.5 -5.5" class="color000 svgShape colore11d48" transform="rotate(81.5 47.003 40.5)"></polygon><circle r="4.7" fill="none" stroke="#000000" stroke-width="2.6" class="colorStroke000 svgStroke colorStrokee11d48" transform="rotate(91.2 39.66 40.5)"></circle><g fill="#000000" class="color000 svgShape colore11d48" transform="rotate(102.8 32.33 40.5)"><path fill="none" stroke="#000000" stroke-width="2.6" d="
 M-4.2 6
 V-4.7
 H0
 C5.5 -4.7 5.5 0 0 0
 H-4.2
 M-0.5 0
 L 3.7 4.7
 " class="colorStroke000 svgStroke colorStrokee11d48"></path><circle cx="3.7" cy="4.7" r="1.3" class="color000 svgShape" fill="#000000"></circle><polygon points="-5.5 5.5 -6 5.8 -6 6 -2.4 6 -2.4 5.8 -2.9 5.5" class="color000 svgShape" fill="#000000"></polygon></g><g fill="#000000" class="color000 svgShape colore11d48" transform="rotate(114.6 26 40.5)"><polygon points="-5.5 5.5 -6 5.8 -6 6 -2.9 6 -2.9 -6 -6 -6 -6 -5.8 -5.5 -5.5" class="color000 svgShape" fill="#000000"></polygon><polygon points="5.5 5.5 6 5.8 6 6 2.9 6 2.9 -6 6 -6 6 -5.8 5.5 -5.5" class="color000 svgShape" fill="#000000"></polygon><polygon points="-5.5 -6 2.9 6 5.5 6 -2.9 -6" class="color000 svgShape" fill="#000000"></polygon></g><polygon fill="#000000" points="-1.3 5.5 -1.8 5.8 -1.8 6 1.8 6 1.8 5.8 1.3 5.5 1.3 -5.5 1.8 -5.8 1.8 -6 -1.8 -6 -1.8 -5.8 -1.3 -5.5" class="color000 svgShape colore11d48" transform="rotate(123 21.99 40.5)"></polygon><g fill="#000000" class="color000 svgShape colore11d48" transform="rotate(131.2 18.372 40.5)"><polygon points="-6 6 -5.5 5.2 -6.5 5.8 -6.5 6 -2.9 6 -2.9 5.8 -3.9 5.2 -3.4 6 -2.5 2.7 .1 2.7 .1 .1 -1.433 .1 .6 -6 -2.5 -6 -2.5 -5.8 -1.5 -5.2 -2 -6" class="color000 svgShape" fill="#000000"></polygon><polygon points="6 6 5.5 5.2 6.5 5.8 6.5 6 2.9 6 2.9 5.8 3.9 5.2 3.4 6 2.5 2.7 -.1 2.7 -.1 .1 1.433 .1 -.6 -6 2.5 -6 2.5 -5.8 1.5 -5.2 2 -6" class="color000 svgShape" fill="#000000"></polygon></g><polygon fill="#000000" points="-1.3 5.5 -1.8 5.8 -1.8 6 1.8 6 1.8 5.8 1.3 5.5 1.3 -6 -1.9 -2.8 -1.3 -2.8" class="color000 svgShape colore11d48" transform="rotate(13 -355.464 -40.5)"></polygon><g fill="#000000" class="color000 svgShape colore11d48" transform="rotate(6.5 -713.228 -40.5)"><ellipse cy="-2.5" fill="none" stroke="#000000" stroke-width="2.6" class="colorStroke000 svgStroke colorStrokee11d48" rx="2.5" ry="2.2"></ellipse><ellipse cy="2.2" fill="none" stroke="#000000" stroke-width="2.6" class="colorStroke000 svgStroke colorStrokee11d48" rx="3.5" ry="2.5"></ellipse></g><g fill="#000000" class="color000 svgShape colore11d48" transform="rotate(-2.1 2209.733 -40.5)"><ellipse cy="2.2" fill="none" stroke="#000000" stroke-width="2.6" class="colorStroke000 svgStroke colorStrokee11d48" rx="3.5" ry="2.5"></ellipse><path fill="none" stroke="#000000" stroke-width="2.6" d="
 M-3.5 2.2
 C-3.5 -6 2 -5.5 4 -3.5
 " class="colorStroke000 svgStroke colorStrokee11d48"></path></g><g fill="#000000" class="color000 svgShape colore11d48" transform="rotate(-10.8 428.445 -40.5)"><ellipse cy="-2.5" fill="none" stroke="#000000" stroke-width="2.6" class="colorStroke000 svgStroke colorStrokee11d48" rx="2.5" ry="2.2"></ellipse><ellipse cy="2.2" fill="none" stroke="#000000" stroke-width="2.6" class="colorStroke000 svgStroke colorStrokee11d48" rx="3.5" ry="2.5"></ellipse></g><polygon fill="#000000" points="-5 5.5 -5.5 5.8 -5.5 6 5 6 5 2.9 4.8 2.9 4.5 3.4 -2.4 3.4 -2.4 -6 -5.5 -6 -5.5 -5.8 -5 -5.5" class="color000 svgShape colore11d48" transform="rotate(23 -82.147 -76.702) scale(.55)"></polygon><polygon fill="#000000" points="-4.5 5.5 -5 5.8 -5 6 4.5 6 4.5 2.9 4.3 2.9 4 3.4 -1.9 3.4 -1.9 1.3 2.5 1.3 2.5 -1.3 -1.9 -1.3 -1.9 -3.4 4 -3.4 4.3 -2.9 4.5 -2.9 4.5 -6 -5 -6 -5 -5.8 -4.5 -5.5" class="color000 svgShape colore11d48" transform="rotate(37 -59.034 -30.927) scale(.55)"></polygon><polygon fill="#000000" points="-1.3 5.5 -1.8 5.8 -1.8 6 1.8 6 1.8 5.8 1.3 5.5 1.3 -3.4 5 -3.4 5.3 -2.9 5.5 -2.9 5.5 -6 -5.5 -6 -5.5 -2.9 -5.3 -2.9 -5 -3.4 -1.3 -3.4" class="color000 svgShape colore11d48" transform="rotate(54 -46.364 -8.514) scale(.55)"></polygon><polygon fill="#000000" points="-1.3 5.5 -1.8 5.8 -1.8 6 1.8 6 1.8 5.8 1.3 5.5 1.3 -3.4 5 -3.4 5.3 -2.9 5.5 -2.9 5.5 -6 -5.5 -6 -5.5 -2.9 -5.3 -2.9 -5 -3.4 -1.3 -3.4" class="color000 svgShape colore11d48" transform="rotate(55 -51.07 1.56) scale(.55)"></polygon><g fill="#000000" class="color000 svgShape colore11d48" transform="rotate(50 -59.933 6.408) scale(.55)"><polygon points="-5.5 5.5 -6 5.8 -6 6 -2.4 6 -2.4 5.8 -2.9 5.5 -2.9 -5.5 -2.4 -5.8 -2.4 -6 -6 -6 -6 -5.8 -5.5 -5.5" class="color000 svgShape" fill="#000000"></polygon><polygon points="5.5 5.5 6 5.8 6 6 2.4 6 2.4 5.8 2.9 5.5 2.9 -5.5 2.4 -5.8 2.4 -6 6 -6 6 -5.8 5.5 -5.5" class="color000 svgShape" fill="#000000"></polygon><polygon points="-5 -1.3 -5 1.3 5 1.3 5 -1.3" class="color000 svgShape" fill="#000000"></polygon></g><polygon fill="#000000" points="-4.5 5.5 -5 5.8 -5 6 4.5 6 4.5 2.9 4.3 2.9 4 3.4 -1.9 3.4 -1.9 1.3 2.5 1.3 2.5 -1.3 -1.9 -1.3 -1.9 -3.4 4 -3.4 4.3 -2.9 4.5 -2.9 4.5 -6 -5 -6 -5 -5.8 -4.5 -5.5" class="color000 svgShape colore11d48" transform="rotate(32 -98.29 7.992) scale(.55)"></polygon><g fill="#000000" class="color000 svgShape colore11d48" transform="rotate(15 -214.681 12.808) scale(.55)"><path fill="none" stroke="#000000" stroke-width="2.6" d="
 M-4.2 6
 V-4.7
 H0
 C5.5 -4.7 5.5 0 0 0
 H-4.2
 M-0.5 0
 L 3.7 4.7
 " class="colorStroke000 svgStroke colorStrokee11d48"></path><circle cx="3.7" cy="4.7" r="1.3" class="color000 svgShape" fill="#000000"></circle><polygon points="-5.5 5.5 -6 5.8 -6 6 -2.4 6 -2.4 5.8 -2.9 5.5" class="color000 svgShape" fill="#000000"></polygon></g><polygon fill="#000000" points="-4.5 5.5 -5 5.8 -5 6 4.5 6 4.5 2.9 4.3 2.9 4 3.4 -1.9 3.4 -1.9 1.3 2.5 1.3 2.5 -1.3 -1.9 -1.3 -1.9 -3.4 4 -3.4 4.3 -2.9 4.5 -2.9 4.5 -6 -5 -6 -5 -5.8 -4.5 -5.5" class="color000 svgShape colore11d48" transform="rotate(5 -651.507 57.13) scale(.55)"></polygon><g fill="#000000" class="color000 svgShape colore11d48" transform="rotate(-22 148.711 -2.86) scale(.55)"><path fill="none" stroke="#000000" stroke-width="2.6" d="
 M-4.2 1.3
 V-4.7
 H0
 C5.5 -4.7 5.5 0 0 0
 H-4.2
 M-4.2 -1.3
 V4.7
 H0
 C5.5 4.7 5.5 0 0 0
 H-4.2
 " class="colorStroke000 svgStroke colorStrokee11d48"></path><polygon points="-5.5 5.5 -6 5.8 -6 6 -4.2 6" class="color000 svgShape" fill="#000000"></polygon><polygon points="-5.5 -5.5 -6 -5.8 -6 -6 -4.2 -6" class="color000 svgShape" fill="#000000"></polygon></g><polygon fill="#000000" points="-4.5 5.5 -5 5.8 -5 6 4.5 6 4.5 2.9 4.3 2.9 4 3.4 -1.9 3.4 -1.9 1.3 2.5 1.3 2.5 -1.3 -1.9 -1.3 -1.9 -3.4 4 -3.4 4.3 -2.9 4.5 -2.9 4.5 -6 -5 -6 -5 -5.8 -4.5 -5.5" class="color000 svgShape colore11d48" transform="rotate(-32 100.196 -5.237) scale(.55)"></polygon><polygon fill="#000000" points="-5 5.5 -5.5 5.8 -5.5 6 5 6 5 2.9 4.8 2.9 4.5 3.4 -2.4 3.4 -2.4 -6 -5.5 -6 -5.5 -5.8 -5 -5.5" class="color000 svgShape colore11d48" transform="rotate(8 -202.01 193.758) scale(.55)"></polygon><polygon fill="#000000" points="-1.3 5.5 -1.8 5.8 -1.8 6 1.8 6 1.8 5.8 1.3 5.5 1.3 -5.5 1.8 -5.8 1.8 -6 -1.8 -6 -1.8 -5.8 -1.3 -5.5" class="color000 svgShape colore11d48" transform="rotate(10 -160.451 186.8) scale(.55)"></polygon><g fill="#000000" class="color000 svgShape colore11d48" transform="rotate(8 -213.256 269.272) scale(.55)"><path fill="none" stroke="#000000" stroke-width="2.6" d="
 M4 -3.5
 C-3 -9   -7 4.7   0 4.7
 L3.5 4.7
 L3.5 0
 " class="colorStroke000 svgStroke colorStrokee11d48"></path><polygon points="2.2 .5 1.7 .2 1.7 0 5.3 0 5.3 .2 4.8 .5" class="color000 svgShape" fill="#000000"></polygon></g><g fill="#000000" class="color000 svgShape colore11d48" transform="matrix(.55 0 0 .55 43.3 33)"><polygon points="-5.5 5.5 -6 5.8 -6 6 -2.4 6 -2.4 5.8 -2.9 5.5 -2.9 -5.5 -2.4 -5.8 -2.4 -6 -6 -6 -6 -5.8 -5.5 -5.5" class="color000 svgShape" fill="#000000"></polygon><polygon points="5.5 5.5 6 5.8 6 6 2.4 6 2.4 5.8 2.9 5.5 2.9 -5.5 2.4 -5.8 2.4 -6 6 -6 6 -5.8 5.5 -5.5" class="color000 svgShape" fill="#000000"></polygon><polygon points="-5 -1.3 -5 1.3 5 1.3 5 -1.3" class="color000 svgShape" fill="#000000"></polygon></g><g fill="#000000" class="color000 svgShape colore11d48" transform="rotate(-5 397.436 -562.07) scale(.55)"><polygon points="-1.3 5.5 -1.8 5.8 -1.8 6 1.8 6 1.8 5.8 1.3 5.5 1.3 -3.4 5 -3.4 5.3 -2.9 5.5 -2.9 5.5 -6 -5.5 -6 -5.5 -2.9 -5.3 -2.9 -5 -3.4 -1.3 -3.4" class="color000 svgShape" fill="#000000"></polygon></g></svg></svg></g></svg>